<svg width="48" height="48" viewBox="0 0 48 48" fill="none" xmlns="http://www.w3.org/2000/svg">
<g id="icon/2">
<path id="Vector" d="M21.5312 48C21.2028 48 20.8333 48 20.5049 48C16.7282 48 16.6871 48 16.4819 44.0128C16.4408 42.8032 15.784 42.5792 15.004 42.2208C14.2651 41.8624 13.5262 41.3248 12.7873 42.2656C12.4589 42.6688 12.0894 42.9824 11.761 43.3856C10.6116 44.8192 9.54425 44.864 8.35377 43.4304C6.99908 41.8624 5.64439 40.2496 4.16655 38.8608C2.93502 37.696 2.97607 36.8448 4.16655 35.6352C5.02862 34.7392 6.50646 34.2016 5.64439 32.0512C4.98757 30.3936 4.16655 29.9008 2.72976 30.1248C0.677203 30.4384 -0.143819 29.632 0.0203852 27.3024C0.18459 25.2864 0.143539 23.2704 0.0203852 21.2544C-0.0617171 19.5072 0.55405 18.8352 2.15504 18.88C3.09922 18.9248 4.2897 19.4624 5.02862 18.3424C5.8907 16.9536 6.21911 15.6544 4.78232 14.2208C2.68871 12.16 2.77081 12.0256 4.78232 9.83042C6.09595 8.39682 7.45064 7.05282 8.68217 5.52962C9.70845 4.23042 10.4884 4.45442 11.5558 5.57442C12.2947 6.33602 12.6641 7.90402 14.2651 7.36642C15.784 6.82882 16.6461 6.11202 16.5229 4.09602C16.3177 1.18402 16.564 1.09442 19.2323 1.04962C21.0796 1.04962 22.9269 1.13922 24.7742 1.04962C26.3752 0.960022 27.032 1.85602 27.032 3.46882C27.032 4.58882 27.032 5.70882 27.032 6.82882C27.032 7.76962 26.4984 8.08322 25.6773 8.08322C24.8563 8.08322 24.6511 7.54562 24.6511 6.78402C24.6511 6.11202 24.6511 5.44002 24.6511 4.76802C24.6511 4.05122 24.4048 3.64802 23.7069 3.64802C22.3933 3.64802 21.1207 3.64802 19.807 3.64802C18.8218 3.64802 18.7397 4.49922 18.8629 5.26082C19.1913 7.54562 18.2471 8.75522 16.2356 9.20322C15.7019 9.33762 15.1683 9.56162 14.7167 9.87522C13.5262 10.6816 12.4999 10.5472 11.6789 9.29282C10.4884 7.41122 9.33899 7.68002 8.23061 9.38242C8.06641 9.60642 7.86115 9.83042 7.6559 10.0096C6.0549 11.3088 5.72649 12.5632 7.57379 13.952C8.60007 14.7584 8.88743 15.744 8.14851 16.9984C7.738 17.6704 7.40959 18.4768 7.28644 19.2384C6.99908 20.9408 6.01385 21.4336 4.61811 21.1648C2.72976 20.8064 2.1961 21.792 2.4424 23.6736C2.48345 24.1216 2.48345 24.5696 2.4424 25.0176C2.11399 27.168 2.72976 28.288 4.94652 27.84C6.26016 27.5712 6.99908 28.288 7.24538 29.7216C7.36854 30.3488 7.57379 31.0656 7.9022 31.6032C8.96953 33.2608 8.72323 34.6496 7.24538 35.8144C5.93175 36.8448 6.09595 37.7856 7.28644 38.7712C7.61485 39.04 7.86115 39.3984 8.14851 39.712C10.0369 41.7728 10.119 41.8176 11.9252 39.8016C12.7873 38.816 13.5673 38.6816 14.5935 39.3984C15.0862 39.7568 15.7019 40.0256 16.2766 40.16C18.2471 40.5632 19.1092 41.8176 18.7808 43.968C18.5755 45.4912 19.2734 45.984 20.546 45.8048C21.0386 45.76 21.5312 45.7152 21.9827 45.8048C24.0764 46.1632 25.0205 45.312 24.6511 42.9376C24.569 42.0416 24.6511 41.28 25.8005 41.28C26.8678 41.28 26.991 41.8624 27.032 42.8032C27.3194 47.9552 27.2783 48 22.5575 48C22.2291 48 21.9006 48 21.5312 48Z" fill="#DE6225"/>
<path id="Vector_2" d="M35.7994 47.9994C33.2661 47.9581 31.264 45.6485 31.8769 43.1327C32.1629 41.8954 31.7134 41.318 31.0597 40.4519C28.8532 37.5236 26.1156 36.575 22.4383 36.74C15.3695 37.0287 10.0986 32.3682 9.44487 25.2332C8.83198 18.6343 13.5308 13.1489 19.905 12.1591C20.5587 12.0354 21.6211 11.6229 21.8254 12.9427C22.0297 14.2212 21.0899 14.0975 20.2727 14.2212C15.3287 15.2523 11.8556 19.0879 11.6513 23.8309C11.447 28.5326 14.4298 32.8219 18.8426 34.1417C21.049 34.8016 23.3372 34.5129 25.5436 34.4304C27.5049 34.3479 28.9758 34.9253 30.2016 36.4513C30.8962 37.3174 31.7543 37.9773 32.4898 38.8021C33.307 39.7095 34.0833 40.1219 35.4317 39.8332C37.7607 39.3383 40.0897 41.483 40.1714 43.7926C40.2531 46.0609 38.1693 48.0406 35.7994 47.9994ZM37.8832 43.6276C37.965 42.6378 37.1478 41.9366 36.0446 41.8954C34.9413 41.8541 34.165 42.514 34.1242 43.7926C34.0833 45.0711 34.8188 45.7722 35.9628 45.8135C37.0661 45.896 37.8424 45.2361 37.8832 43.6276Z" fill="#DE6225"/>
<path id="Vector_3" d="M25.0415 16.5487C27.6589 17.1942 30.2347 16.1855 32.1459 13.6034C33.0599 12.3527 34.3894 12.4737 35.7188 12.5544C37.0483 12.6351 37.9623 12.3527 38.8348 11.1826C40.4136 8.96359 43.1972 8.84255 45.1498 10.6178C46.9363 12.272 46.8532 15.1365 44.9421 16.6697C42.9894 18.2028 40.1227 17.759 38.5855 15.7014C37.5884 14.37 34.7633 13.8858 33.8493 15.2172C31.3149 18.7677 27.7835 18.9291 23.9613 18.6466C23.0472 18.566 22.1748 18.566 21.2608 18.6466C19.225 18.808 17.6878 20.3815 17.5216 22.3181C17.397 24.1741 18.6433 25.7879 20.5545 26.3527C20.8868 26.4334 21.2192 26.5948 21.5516 26.5948C22.341 26.6755 22.9226 26.8369 22.7564 27.8052C22.6318 28.6121 22.0501 28.6525 21.3854 28.6928C17.8124 28.8139 14.4887 25.0213 15.2366 21.6323C15.9844 18.3239 18.1863 16.6293 21.7178 16.589C22.5902 16.5487 23.5043 16.5487 25.0415 16.5487ZM42.0754 11.5054C40.8706 11.7071 40.2058 12.3527 40.2889 13.563C40.372 14.7734 41.0368 15.419 42.2831 15.3786C43.4464 15.3383 44.0696 14.6927 44.1112 13.6034C44.1527 12.272 43.2803 11.7475 42.0754 11.5054Z" fill="#DE6225"/>
<path id="Vector_4" d="M46.4349 34.8298C46.1877 36.7445 45.4048 38.1598 43.5507 38.8258C41.6141 39.5334 39.9247 38.9923 38.8534 37.3689C38.0293 36.1618 37.1641 35.7039 35.8043 35.8704C34.733 36.0369 33.9914 35.4958 33.2909 34.7881C32.0548 33.4977 30.8187 32.1657 29.4589 31.0418C28.7173 30.4175 28.47 29.7098 28.9233 29.1271C29.4589 28.4194 30.3242 28.6692 30.9011 29.2519C32.096 30.3758 33.2497 31.583 34.4034 32.7485C36.0104 34.3302 37.2053 34.247 38.565 32.4987C39.8835 30.8337 41.7789 30.251 43.6743 31.0002C45.4872 31.7078 46.1877 33.1231 46.4349 34.8298ZM40.2544 34.5384C40.2131 36.1201 40.79 36.7861 42.0673 36.7445C43.3034 36.7029 44.0039 36.1201 44.0039 34.8714C44.0039 33.6642 43.3858 32.9566 42.1497 32.9566C40.9136 32.9566 40.3368 33.6642 40.2544 34.5384Z" fill="#DE6225"/>
<path id="Vector_5" d="M33.6473 22.8222C34.3961 22.8222 35.1864 22.7815 35.9352 22.8222C37.2664 22.9441 38.1815 22.6596 38.9719 21.3591C40.1783 19.4489 43.215 19.3676 45.0453 20.8714C46.7093 22.2532 46.9172 24.8543 45.4613 26.48C43.7973 28.3495 41.0102 28.8778 39.6791 27.0083C37.9319 24.6104 35.7272 24.773 33.3561 24.8136C32.3993 24.8543 31.401 24.8543 30.4442 24.8136C29.6538 24.773 28.6555 25.0981 28.6971 23.7569C28.7387 22.4158 29.7786 22.8222 30.5274 22.7815C31.609 22.7815 32.6489 22.8222 33.6473 22.8222ZM44.1301 23.8382C44.0053 22.7409 43.423 22.0093 42.175 22.0093C40.8854 22.0093 40.2199 22.8628 40.1783 23.9195C40.1367 25.1794 41.0934 25.9516 42.2998 25.911C43.4646 25.911 44.0885 25.0575 44.1301 23.8382Z" fill="#DE6225"/>
<path id="Vector_6" d="M35.9328 0C38.3765 0 40.2907 1.94888 40.1685 4.31241C40.0871 6.46861 37.9285 8.74922 35.8106 8.21016C33.815 7.71258 32.9597 8.83215 31.9007 9.91025C31.2084 10.5737 30.5567 11.2786 29.8643 11.9421C29.2534 12.5226 28.4388 12.8128 27.9094 12.1079C27.4614 11.5274 27.5835 10.781 28.3981 10.2005C29.2127 9.61999 29.8643 8.74922 30.5974 8.08577C31.6564 7.13206 32.2673 6.26129 31.86 4.5612C31.3305 2.11474 33.4891 0 35.9328 0ZM37.8878 4.43681C37.847 2.77819 37.0325 2.11474 35.9328 2.1562C34.7924 2.19767 34.1 2.90258 34.1408 4.22948C34.1815 5.51491 34.9553 6.17836 36.0957 6.13689C37.1954 6.09543 37.9285 5.34905 37.8878 4.43681Z" fill="#DE6225"/>
<path id="Vector_7" d="M23.4865 11.4987C23.4137 10.7212 23.8144 10.4757 24.4701 10.4348C25.1622 10.4348 25.5993 10.6394 25.5629 11.5396C25.5629 12.4399 25.0893 12.5217 24.5065 12.5217C23.8872 12.5217 23.4501 12.3171 23.4865 11.4987Z" fill="#DE6225"/>
<path id="Vector_8" d="M27.1259 27.6368C27.0345 28.5686 26.3493 28.6957 25.527 28.6957C24.7047 28.6533 24.522 28.2298 24.522 27.5945C24.522 26.4933 25.3443 26.6204 26.0752 26.6204C26.8974 26.5356 27.1715 26.9168 27.1259 27.6368Z" fill="#DE6225"/>
<path id="Vector_9" d="M26.5978 23.9197C26.6792 24.6689 26.3129 25.0018 25.5802 25.0435C24.8069 25.0435 24.522 24.7105 24.522 23.9613C24.522 23.2953 24.7662 22.9624 25.4581 22.9624C26.15 22.9207 26.6792 23.0872 26.5978 23.9197Z" fill="#DE6225"/>
<path id="Vector_10" d="M22.4258 24.0025C22.5073 24.8353 22.0183 25.0435 21.2848 25.0435C20.5514 25.0435 20.3477 24.6271 20.3477 24.0025C20.3477 23.3363 20.5514 22.9615 21.2848 22.9615C22.0183 22.9199 22.4665 23.1281 22.4258 24.0025Z" fill="#DE6225"/>
</g>
</svg>
