<svg width="48" height="48" viewBox="0 0 48 48" fill="none" xmlns="http://www.w3.org/2000/svg">
<g id="icon/4" clip-path="url(#clip0_5014_995)">
<path id="Vector" d="M37.2619 31.715C37.3474 32.4844 37.0908 33.0828 36.5346 33.6384C35.5934 34.536 34.7378 35.4764 33.7966 36.3312C32.3421 37.699 31.0159 37.699 29.6041 36.2885C29.2619 35.9466 28.9624 35.4764 28.3635 35.6474C27.8501 35.8183 27.9785 36.3312 27.8929 36.7159C27.4223 38.9813 25.8822 39.4515 23.7859 39.4515C21.7325 39.4515 20.2351 38.8103 19.8929 36.7159C19.6362 35.0917 19.1656 35.5619 18.3528 36.2885C16.6843 37.7417 15.4437 37.7417 13.9464 36.2458C13.0908 35.3909 12.2779 34.4933 11.5079 33.553C10.5239 32.3134 10.3528 31.0311 11.6362 29.7916C12.0212 29.4069 12.663 29.065 12.4063 28.4238C12.1496 27.6972 11.4223 28.0392 10.9517 27.9109C9.15493 27.398 8.29932 26.2867 8.29932 24.3633C8.3421 21.7132 8.98381 20.6447 10.9517 20.2173C11.5079 20.089 12.1924 20.2173 12.3635 19.5334C12.4918 18.935 11.9357 18.7213 11.5507 18.3793C11.3795 18.2511 11.2084 18.1229 11.0801 17.9519C10.1389 16.4986 11.3368 14.1051 14.2031 11.626C15.4437 10.5574 16.8127 10.4292 18.0105 11.5832C19.1656 12.6945 19.679 12.9937 19.9785 10.9848C20.2351 9.18965 21.9464 8.59125 25.0694 8.71948C26.8662 8.80497 27.8073 9.70256 27.8501 11.4978C27.8501 11.9252 27.8073 12.3953 28.3635 12.5236C28.8341 12.6091 29.1335 12.2671 29.433 11.9679C31.1015 10.3864 32.2565 10.4292 33.925 12.0534C34.6523 12.7373 35.3368 13.4639 36.064 14.1478C37.6469 15.772 37.6897 16.7551 36.1924 18.5075C35.1656 19.6616 35.3368 20.0035 36.9196 20.3027C39.0159 20.6874 39.4437 22.3544 39.4437 24.3633C39.4009 26.2867 38.7164 27.6117 36.8341 27.9109C34.9517 28.2101 35.4223 28.894 36.3207 29.7489C36.9196 30.2618 37.3902 30.8174 37.2619 31.715ZM34.695 16.2422C34.2245 15.2164 33.2405 14.618 32.4704 13.7631C31.9143 13.2075 31.4865 13.2929 30.8448 13.8059C28.2779 15.8575 26.0961 15.1309 25.4544 11.9679C25.2405 10.8994 24.7699 10.7284 23.9143 10.7284C23.0159 10.7284 22.5453 11.0276 22.3314 12.0107C21.7325 14.9172 19.5079 15.772 17.1977 13.8486C15.8287 12.7373 15.3154 13.6776 14.5881 14.4043C13.9036 15.1736 12.663 15.6865 13.9036 17.1825C15.8715 19.4906 15.0159 21.585 12.0212 22.2262C10.9945 22.4399 10.7806 22.9528 10.7806 23.8504C10.7806 24.7907 10.8662 25.4319 12.064 25.6883C15.0587 26.3295 15.9571 28.5093 13.9892 30.6892C12.6202 32.2707 14.0319 32.7836 14.7164 33.5957C15.4437 34.4933 16.0854 35.049 17.3261 33.9376C19.5079 32.0142 21.6897 32.7836 22.2886 35.6901C22.5025 36.7587 23.0159 36.8869 23.8715 36.8869C24.7699 36.8869 25.1977 36.7159 25.4544 35.6474C26.0105 32.9118 28.5346 31.9715 30.5453 33.8094C32.3849 35.4764 32.7699 33.5957 33.7111 32.9546C34.8234 32.1852 34.8234 31.5013 33.7966 30.4327C31.9999 28.5948 32.8982 26.0303 35.3795 25.7311C36.5346 25.5601 37.0052 25.2609 36.9624 24.0641C36.9196 22.9528 36.6202 22.4826 35.4223 22.2689C32.8982 21.8415 32.171 19.4051 33.7966 17.439C34.1389 17.097 34.6523 16.8833 34.695 16.2422Z" fill="#DE6225"/>
<path id="Vector_2" d="M5.6473 40.0071C5.6473 41.0329 5.60452 41.8023 5.6473 42.5717C5.69008 43.5548 5.13393 43.7685 4.3211 43.7257C3.50826 43.7257 3.16602 43.341 3.16602 42.5717C3.16602 40.7765 3.2088 39.024 3.16602 37.2289C3.16602 36.2885 3.6366 35.9893 4.49222 36.0321C6.28901 36.0748 8.04302 36.0748 9.83981 36.0321C10.6954 36.0321 11.2088 36.2458 11.166 37.2289C11.1232 38.1692 10.5243 38.2119 9.83981 38.2119C9.28366 38.2119 8.72751 38.2119 7.82912 38.2119C10.2676 41.5886 13.4334 43.4265 16.9414 44.5378C32.2997 49.5387 46.2035 37.4853 45.519 22.9101C45.3906 20.6874 45.0056 18.5503 44.15 16.4987C43.7649 15.5583 43.9789 15.0882 44.8345 14.6607C45.9895 14.1051 46.1179 14.9172 46.4174 15.6866C51.8077 29.1077 42.9521 45.1362 28.7061 47.6153C20.3639 49.0686 13.0911 47.0169 6.9735 41.0329C6.7596 40.8192 6.58848 40.6483 6.37457 40.4345C6.24623 40.2636 6.11789 40.2208 5.6473 40.0071Z" fill="#DE6225"/>
<path id="Vector_3" d="M42.4811 8.29205C42.4811 6.92429 42.4811 6.11218 42.4811 5.25732C42.4811 4.61618 42.8662 4.40247 43.4223 4.40247C44.0213 4.40247 44.6202 4.48796 44.6202 5.25732C44.6202 7.26623 44.6202 9.23239 44.6202 11.2413C44.6202 12.0534 44.0213 12.0961 43.4223 12.0961C41.7967 12.0961 40.1282 12.0961 38.5025 12.0961C37.6897 12.0961 36.9196 12.1816 36.9624 10.9421C37.0052 9.83079 37.7753 9.95902 38.4598 9.95902C38.9731 9.95902 39.4437 9.95902 40.4277 9.95902C38.4598 7.52268 36.2352 5.98395 33.7967 4.78715C20.9196 -1.70973 5.39023 5.94121 2.82339 20.089C2.1389 23.7222 2.26724 27.4835 3.59344 31.0739C3.76457 31.5868 4.10681 32.1425 3.89291 32.6981C3.679 33.2965 3.08007 33.5102 2.5667 33.6384C1.75387 33.8094 1.71109 33.04 1.53997 32.5699C-1.92527 23.0383 0.427667 11.9679 9.11216 5.30007C19.2512 -2.4791 31.8715 -1.62424 41.1977 7.22349C41.4972 7.52268 41.7967 7.7364 42.4811 8.29205Z" fill="#DE6225"/>
<path id="Vector_4" d="M18.524 24.0214C18.524 21.0294 20.9197 18.5503 23.8716 18.5076C26.9518 18.4648 29.6898 21.1576 29.6042 24.1496C29.5186 27.0134 26.9518 29.5779 24.0855 29.5779C20.9625 29.5779 18.4812 27.0989 18.524 24.0214ZM24.171 20.9867C22.417 20.9439 20.8341 22.1835 20.7486 23.7649C20.6202 25.4746 21.9892 26.9706 23.6577 27.0561C25.7111 27.1843 27.0374 26.073 27.0801 24.1496C27.1657 22.2689 26.0534 21.0294 24.171 20.9867Z" fill="#DE6225"/>
</g>
<defs>
<clipPath id="clip0_5014_995">
<rect width="48" height="48" fill="white"/>
</clipPath>
</defs>
</svg>
