<svg width="44" height="47" viewBox="0 0 44 47" fill="none" xmlns="http://www.w3.org/2000/svg">
<g id="Group 2">
<path id="Vector" d="M11.8923 32.2345C11.9352 34.6758 10.5173 35.8345 8.02525 35.8345C5.87692 35.8345 4.41605 37.3241 4.54495 39.3103C4.58791 40.0965 5.06055 40.4689 5.61912 40.9655C7.20889 42.331 7.25185 44.3172 5.79098 45.6827C4.45901 46.9655 2.22474 46.9241 1.02167 45.6414C-0.353261 44.1517 -0.224361 42.2483 1.49431 40.9655C2.31068 40.3862 2.56848 39.7655 2.52551 38.8965C2.43958 37.9862 2.43958 36.9931 3.38485 36.4965C5.49022 35.3379 5.27538 33.3931 5.40428 31.531C5.49022 30.4552 4.50198 30 3.81451 29.462C2.48254 28.4689 2.43958 27.1448 2.52551 25.7379C2.56848 25.1172 2.74034 24.662 3.51375 24.662C4.20121 24.662 4.50198 24.9103 4.63088 25.6138C5.31835 29.1724 5.36132 29.1724 9.09942 29.5862C10.8181 29.8345 11.7204 30.9931 11.8923 32.2345ZM5.01758 43.2827C4.71681 42.6207 4.33011 42 3.38485 42.0414C2.52551 42.0827 2.05288 42.5379 2.09584 43.3655C2.13881 44.2345 2.65441 44.8138 3.51375 44.8552C4.41605 44.8552 4.84571 44.2345 5.01758 43.2827ZM9.82986 32.6069C9.78689 31.9034 9.44316 31.3241 8.58382 31.3241C7.59559 31.2827 7.16592 31.862 7.16592 32.7724C7.16592 33.5586 7.55262 34.0965 8.41195 34.1379C9.40019 34.1793 9.78689 33.5586 9.82986 32.6069Z" fill="#DE6225"/>
<path id="Vector_2" d="M41.5396 26.4827C41.5825 27.4759 41.6685 28.3862 40.8091 28.8414C38.7897 30 38.8327 31.8621 38.7038 33.7655C38.6178 34.6759 39.2194 35.0069 39.692 35.4207C40.8951 36.4965 41.9263 37.531 41.5825 39.3103C41.4107 40.0965 42.0122 40.469 42.6137 40.9241C44.2894 42.2483 44.4613 44.2345 43.0864 45.6C41.7974 46.8827 39.6061 46.9241 38.2741 45.6827C36.8132 44.3172 36.7703 42.2069 38.446 41.0069C39.735 40.0965 39.8209 38.9379 39.3053 37.9448C38.7897 36.8276 37.9304 35.7517 36.2547 35.7931C33.6767 35.8345 32.3017 34.6759 32.2158 32.7724C32.1728 30.8276 33.5907 29.7103 36.3406 29.6276C37.9733 29.5862 39.3053 28.2621 39.4772 26.6483C39.5631 25.8621 39.0045 24.6207 40.5943 24.7448C42.0552 24.7862 41.3677 25.9448 41.5396 26.4827ZM40.5513 42.0414C39.692 42.1241 39.0905 42.6207 39.0905 43.4483C39.0905 44.2759 39.692 44.8965 40.5943 44.8138C41.4536 44.731 41.9692 44.1103 41.9263 43.2827C41.9263 42.4965 41.4107 42.0827 40.5513 42.0414ZM36.8562 32.7724C36.8132 31.9034 36.4265 31.3241 35.4813 31.3241C34.6219 31.3241 34.2352 31.8621 34.2352 32.6896C34.2352 33.5586 34.6219 34.1379 35.6102 34.1379C36.4695 34.0965 36.8132 33.5586 36.8562 32.7724Z" fill="#DE6225"/>
<path id="Vector_3" d="M16.4895 32.731C16.8762 34.9655 16.5754 36.869 14.3841 38.2759C12.9232 39.1862 13.6966 40.1793 14.8567 41.0483C15.9309 41.8345 16.4895 42.9931 16.0168 44.3586C15.5872 45.5172 14.8567 46.4276 13.4818 46.6345C12.0209 46.8414 10.7749 46.5103 9.91557 45.269C8.9703 43.8621 9.0992 42.4965 10.3882 41.3379C11.1616 40.6345 11.7631 39.9724 11.5913 38.8552C11.4624 37.9862 12.1928 37.531 12.7943 36.9931C15.2864 34.8 15.3294 30.6621 12.7943 28.5103C11.935 27.7655 11.4624 26.9379 11.5913 25.8207C11.6772 25.2 11.7631 24.7448 12.5365 24.7034C13.224 24.7034 13.6537 24.869 13.6537 25.6138C13.6107 26.2759 13.7826 26.8965 14.3841 27.2276C16.6614 28.5103 16.9192 30.4965 16.4895 32.731ZM12.8373 42.0828C11.978 42.1241 11.5053 42.4965 11.4624 43.3241C11.4194 44.1517 11.6772 44.8552 12.6654 44.8965C13.3959 44.8965 13.9974 44.4828 14.0833 43.6965C14.1263 42.7862 13.7396 42.2069 12.8373 42.0828Z" fill="#DE6225"/>
<path id="Vector_4" d="M31.4852 46.5931C29.8095 46.6345 28.7783 45.8483 28.2197 44.4C27.7041 43.0759 28.0908 41.8345 29.2079 41.0896C30.9266 39.9724 30.6688 39.0207 29.3368 37.8621C26.6299 35.4621 26.6299 30.0828 29.3368 27.6414C29.9813 27.0621 30.4969 26.4828 30.454 25.531C30.411 24.7448 31.0125 24.7034 31.657 24.7448C32.3015 24.7862 32.4304 25.2 32.5164 25.6965C32.7312 27.0207 32.0867 27.8896 31.0985 28.6759C28.9072 30.4552 28.8642 34.9655 31.0125 36.7034C31.9148 37.4069 32.7312 38.1517 32.5593 39.4345C32.4304 40.2621 33.1609 40.5517 33.6765 41.0069C34.8366 42 35.0514 43.3241 34.4928 44.5655C33.9772 45.8069 32.989 46.6345 31.4852 46.5931ZM32.8601 43.531C32.7312 42.6621 32.2586 42.1241 31.3563 42.0827C30.4969 42.0414 30.0673 42.5379 29.9813 43.3241C29.8954 44.2345 30.411 44.7724 31.2703 44.8552C32.2156 44.9379 32.6453 44.3172 32.8601 43.531Z" fill="#DE6225"/>
<path id="Vector_5" d="M23.0634 32.731C23.0634 34.3034 23.1063 35.8759 23.0634 37.4897C23.0204 39.0207 22.9774 40.3448 24.5672 41.4207C25.9421 42.3724 25.6414 44.6483 24.3524 45.8069C23.1493 46.8828 20.8291 46.8828 19.669 45.7655C18.4659 44.6483 18.2941 42.2483 19.669 41.2965C21.001 40.3448 21.0439 39.2276 21.0439 37.9034C21.001 34.0552 21.0439 30.2069 21.0439 26.3586C21.0439 25.6552 20.7861 24.7448 22.0751 24.7034C23.3212 24.7034 23.1063 25.6138 23.1063 26.3172C23.0634 28.469 23.0634 30.5793 23.0634 32.731ZM22.0751 44.9379C22.7626 44.731 23.3641 44.4 23.4071 43.6138C23.4501 42.7448 22.9345 42.1655 22.0322 42.1241C21.2158 42.0828 20.7002 42.6207 20.6143 43.3655C20.5713 44.2345 21.2158 44.6897 22.0751 44.9379Z" fill="#DE6225"/>
<path id="Vector_6" d="M43.6874 18.331C43.6874 19.0345 43.6874 19.6966 43.6874 20.4C43.6445 23.7517 44.0741 23.3793 40.5938 23.3793C36.8557 23.3793 37.3713 23.8345 37.3284 20.1931C37.3284 18.331 37.3713 16.469 37.2854 14.6069C37.2424 13.4069 37.7151 13.1172 38.9181 13.0759C43.6874 12.9104 43.6874 12.869 43.6874 18.331ZM41.8828 18.5793C41.8828 17.669 41.8828 17.0069 41.8828 16.3035C41.8399 15.4759 41.4102 15.1035 40.5079 15.0621C39.5197 15.0621 39.3048 15.6 39.3478 16.3862C39.3478 17.0897 39.2189 17.7931 39.3908 18.4552C39.6915 19.4483 38.3166 21.3103 40.5079 21.3517C42.8281 21.3931 41.4961 19.4069 41.8828 18.5793Z" fill="#DE6225"/>
<path id="Vector_7" d="M0.291016 18.2069C0.291016 17.9173 0.291016 17.669 0.291016 17.3793C0.291016 12.5793 0.291016 12.5793 5.40406 13.0345C6.26339 13.1173 6.69306 13.3655 6.69306 14.2345C6.65009 16.8414 6.69306 19.4483 6.69306 22.0552C6.69306 22.6345 6.56416 23.2552 5.83373 23.2966C4.24396 23.3793 2.65419 23.3793 1.10738 23.3379C0.333982 23.3379 0.291016 22.6759 0.291016 22.1379C0.291016 20.8138 0.291016 19.5311 0.291016 18.2069ZM4.58769 18.2483C4.58769 17.5035 4.58769 16.7586 4.58769 16.0138C4.63066 15.1448 4.20099 14.8138 3.29869 14.8138C2.43935 14.8138 1.96672 15.0621 2.00969 15.9724C2.05265 17.5448 2.05265 19.1173 2.00969 20.6897C2.00969 21.5586 2.52529 21.6828 3.25572 21.6828C3.94319 21.6828 4.54472 21.6 4.54472 20.731C4.58769 19.9035 4.58769 19.0759 4.58769 18.2483Z" fill="#DE6225"/>
<path id="Vector_8" d="M37.2858 5.13104C37.2858 5.0069 37.2858 4.84138 37.2858 4.71725C37.2858 -0.289652 37.2858 -0.289651 42.4847 0.24828C43.43 0.331038 43.7308 0.662073 43.7308 1.53104C43.6878 4.0138 43.6878 6.49656 43.7308 8.97931C43.7308 10.0138 43.2581 10.3035 42.2699 10.2621C41.0668 10.2207 39.8208 10.2207 38.6177 10.2621C37.5865 10.3035 37.2428 9.84828 37.2858 8.89656C37.3287 7.6138 37.2858 6.37242 37.2858 5.13104ZM41.9262 5.17242C41.9262 4.46897 41.8832 3.8069 41.9262 3.10345C41.9691 2.23449 41.5824 1.90345 40.6372 1.90345C39.7349 1.90345 39.3052 2.19311 39.3482 3.10345C39.3911 4.55173 39.3911 6 39.3482 7.44828C39.3482 8.4 39.9067 8.56552 40.7231 8.56552C41.4965 8.56552 41.9262 8.27587 41.8832 7.48966C41.8832 6.70345 41.9262 5.91725 41.9262 5.17242Z" fill="#DE6225"/>
<path id="Vector_9" d="M25.212 5.29657C25.212 5.42071 25.212 5.58623 25.212 5.71037C25.212 10.7173 25.212 10.7173 20.056 10.2207C19.1537 10.138 18.81 9.8483 18.81 8.97933C18.8529 6.49657 18.81 4.01381 18.81 1.57244C18.81 1.11726 18.724 0.413815 19.3685 0.413815C21.1302 0.331056 22.9348 0.331056 24.6964 0.413815C25.2979 0.455194 25.169 1.15864 25.212 1.61381C25.212 2.81381 25.212 4.05519 25.212 5.29657ZM20.8724 5.08968C20.8724 5.8345 20.9153 6.62071 20.8724 7.36554C20.8294 8.27588 21.2591 8.56554 22.1614 8.56554C23.0637 8.56554 23.4504 8.2345 23.4504 7.36554C23.4074 5.91726 23.4074 4.46899 23.4504 3.02071C23.4504 2.2345 23.0637 1.94485 22.2903 1.94485C21.4739 1.94485 20.8724 2.06899 20.9153 3.06209C20.9153 3.68278 20.8724 4.38623 20.8724 5.08968Z" fill="#DE6225"/>
<path id="Vector_10" d="M34.321 18.1656C34.321 18.5794 34.321 18.9932 34.321 19.4069C34.321 23.669 33.8054 24.0828 29.2939 23.4207C28.4775 23.2966 28.1768 22.9656 28.1768 22.2207C28.1768 19.6138 28.2197 17.0069 28.1768 14.4C28.1768 13.4069 28.5635 13.1587 29.5517 13.0759C34.321 12.7449 34.321 12.7035 34.321 18.1656ZM32.5594 18.1656C32.5594 17.4207 32.5164 16.6759 32.5594 15.9311C32.6023 14.9794 32.0008 14.8138 31.1844 14.8138C30.411 14.8138 29.9814 15.0621 29.9814 15.8897C29.9814 17.4621 30.0243 19.0345 29.9814 20.6069C29.9814 21.5587 30.5399 21.7242 31.3563 21.7242C32.1297 21.7242 32.5594 21.4759 32.5594 20.6483C32.5164 19.8207 32.5594 18.9932 32.5594 18.1656Z" fill="#DE6225"/>
<path id="Vector_11" d="M6.39278 5.42072C6.39278 5.62762 6.39278 5.83451 6.39278 6.04141C6.39278 10.6345 6.34981 10.6759 1.49457 10.2207C0.549302 10.138 0.248535 9.80693 0.248535 8.93796C0.291502 6.4552 0.291502 3.97245 0.248535 1.48969C0.248535 0.662101 0.506336 0.165549 1.49457 0.248308C1.5805 0.248308 1.62347 0.248308 1.7094 0.248308C6.39278 -0.0827269 6.39278 -0.0827267 6.39278 5.42072ZM4.63114 5.21382C4.63114 4.51038 4.58818 3.84831 4.63114 3.14486C4.67411 2.31727 4.37334 1.90348 3.42807 1.8621C2.35391 1.8621 2.01017 2.27589 2.05314 3.22762C2.09611 4.55176 2.09611 5.83451 2.05314 7.15865C2.01017 8.11038 2.31094 8.52417 3.38511 8.52417C4.54521 8.52417 4.67411 7.94486 4.63114 7.07589C4.58818 6.4552 4.63114 5.83451 4.63114 5.21382Z" fill="#DE6225"/>
<path id="Vector_12" d="M21.9465 23.3379C21.5168 23.3379 21.0872 23.3793 20.6575 23.3379C19.97 23.2552 18.9818 23.6689 18.8529 22.4689C18.724 21.4758 19.3685 21.3517 20.1849 21.3103C21.0012 21.2689 21.0012 20.6896 21.0012 20.1103C21.0012 18.8689 21.0012 17.6276 21.0012 16.3862C21.0012 15.6414 20.8723 15.0207 19.8841 15.0207C19.0248 15.0207 18.8099 14.5655 18.8529 13.8207C18.9388 13.0345 19.4974 13.0758 20.0989 13.0345C22.9347 12.7862 23.0636 12.8689 23.0636 15.6827C23.0636 16.9241 23.0636 18.1655 23.0636 19.4069C23.0636 20.3586 22.8488 21.4345 24.4386 21.3517C25.0831 21.3103 25.212 21.8483 25.169 22.3862C25.169 22.9655 24.8682 23.2965 24.2667 23.2965C23.4933 23.3379 22.7199 23.3379 21.9465 23.3379Z" fill="#DE6225"/>
<path id="Vector_13" d="M13.6108 17.3793C13.6108 18.2896 13.6108 19.1586 13.6108 20.0689C13.5678 20.8552 13.7397 21.4345 14.7279 21.3931C15.5872 21.3517 15.8021 21.8483 15.7591 22.5931C15.6732 23.3793 15.1146 23.3793 14.5131 23.3793C13.31 23.3793 12.1069 23.3793 10.9038 23.3793C10.2164 23.3793 9.61485 23.2965 9.48595 22.4689C9.35705 21.6414 9.82968 21.3517 10.6031 21.3517C11.5054 21.3517 11.5913 20.7724 11.5913 20.1103C11.5913 18.9517 11.5913 17.7931 11.5913 16.6345C11.5913 15.8069 11.5483 15.1448 10.4312 15.0621C9.74375 15.0207 9.44298 14.5655 9.48595 13.9448C9.52891 13.1586 10.0875 13.1586 10.689 13.1172C13.4819 12.8276 13.6537 12.9931 13.6537 15.7655C13.6108 16.2621 13.6108 16.8 13.6108 17.3793Z" fill="#DE6225"/>
<path id="Vector_14" d="M12.6226 10.1793C12.2789 10.1793 11.8922 10.2207 11.5485 10.1793C10.861 10.0551 9.8298 10.6344 9.52903 9.59997C9.1853 8.39997 10.3454 8.64824 11.0329 8.44134C11.6774 8.27583 11.5485 7.69652 11.5914 7.24134C11.6344 6.1241 11.5914 5.04824 11.5914 3.931C11.5914 2.9379 11.8922 1.82066 10.1306 1.82066C9.35717 1.82066 9.22827 0.910311 9.61497 0.579276C10.5602 -0.206931 11.8063 0.206862 12.8804 0.248242C13.8257 0.289621 13.6109 1.11721 13.6109 1.69652C13.6538 3.47583 13.6109 5.25514 13.6109 7.03445C13.6109 7.7379 13.5679 8.44134 14.6421 8.44134C15.2436 8.44134 15.8022 8.5241 15.7592 9.31031C15.6733 10.262 14.8999 10.0551 14.3413 10.0965C13.7398 10.2207 13.1812 10.1793 12.6226 10.1793Z" fill="#DE6225"/>
<path id="Vector_15" d="M31.1412 10.1794C30.6256 10.1794 30.153 10.1794 29.6374 10.1794C29.0358 10.138 28.2624 10.3449 28.2195 9.35179C28.1765 8.56558 28.778 8.5242 29.3796 8.48282C30.11 8.48282 30.3678 8.11041 30.3678 7.44834C30.3678 5.95868 30.3678 4.42765 30.3678 2.93799C30.3678 2.27593 30.11 1.90351 29.3796 1.90351C28.778 1.90351 28.2195 1.82075 28.2624 1.03455C28.3054 0.0828217 29.0788 0.289718 29.6803 0.248339C31.4849 6.31362e-05 32.5161 0.455236 32.2154 2.5242C32.0435 3.88972 32.1724 5.25524 32.1724 6.62075C32.1724 7.57248 32.0005 8.64834 33.5903 8.56558C34.1059 8.5242 34.3207 8.89662 34.2778 9.39317C34.2778 10.0552 33.8051 10.1794 33.2895 10.1794C32.5591 10.1794 31.8287 10.1794 31.1412 10.1794Z" fill="#DE6225"/>
</g>
</svg>
