<svg width="44" height="48" viewBox="0 0 44 48" fill="none" xmlns="http://www.w3.org/2000/svg">
<g id="Group 1">
<path id="Vector" d="M42.7948 29.4594C43.1663 31.5284 42.1345 32.1077 40.3185 31.9008C38.7501 31.6939 37.7596 32.0249 37.0579 33.8042C36.3563 35.5008 36.9754 36.4111 38.0897 37.3215C39.493 38.4801 39.4517 39.556 38.0485 40.6732C37.5119 41.087 37.0579 41.6249 36.5627 42.1215C33.8387 44.8525 33.7974 44.8939 30.8258 42.3698C29.6289 41.3766 28.9685 42.5353 28.0605 42.7008C27.1938 42.8663 26.6985 43.3215 26.616 44.3973C26.4096 48.0801 26.3683 48.0801 22.7363 48.0801C22.4474 48.0801 22.1998 48.0801 21.9109 48.0801C18.0725 48.0801 17.99 48.0801 17.7424 44.3146C17.6185 42.5766 16.1327 42.9077 15.266 42.287C14.4818 41.7077 13.9453 42.0387 13.3262 42.618C10.6022 45.1835 10.5609 45.1422 7.96077 42.5353C7.67186 42.2456 7.38295 41.956 7.09404 41.6663C4.65896 39.2249 4.61769 39.1835 7.0115 36.7422C7.83695 35.9146 8.00204 35.2111 7.38295 34.218C6.80514 33.2249 6.88768 31.6111 5.03042 31.9422C4.57642 32.0249 4.08115 31.9422 3.58588 31.9422C2.8017 31.9422 1.93497 31.9835 1.72861 31.0318C1.56352 29.956 1.39843 28.7973 1.85243 27.7629C2.05879 27.2663 2.71915 27.4318 3.17315 27.4318C3.62715 27.4318 4.03987 27.6387 3.9986 28.1353C3.83351 29.8318 4.86533 29.9146 6.06223 29.7491C7.87822 29.5008 8.99258 30.0801 9.1164 32.0663C9.15767 32.4387 9.36403 32.8525 9.61167 33.1835C10.8911 35.0042 10.8498 36.4939 8.95131 37.9008C7.25913 39.1422 8.99258 39.8042 9.61167 40.5904C10.2308 41.3353 10.9324 42.2042 11.7991 40.8801C13.0786 38.9766 14.6057 38.8111 16.4216 40.1766C16.7518 40.4249 17.1646 40.5491 17.5773 40.6318C19.6822 40.9215 20.5076 42.1215 20.1362 44.2318C19.806 46.0939 21.0854 45.9284 22.2823 45.9697C23.5205 46.0111 24.5523 45.887 24.2634 44.2732C23.892 42.0801 24.7174 40.8801 26.9461 40.6318C27.2763 40.5904 27.6478 40.4663 27.8954 40.2594C29.794 38.8525 31.3623 39.018 32.683 41.0456C33.3847 42.0801 34.1276 41.6663 34.5816 40.8801C35.0768 40.0525 37.0167 39.7629 35.6959 38.1491C34.9943 37.3215 33.5498 36.7835 33.8799 35.5835C34.3339 33.7629 35.1181 31.9422 36.0261 30.287C36.5627 29.3353 37.8008 29.9973 38.7088 29.8318C39.3279 29.7491 40.2772 30.1629 40.3185 29.087C40.401 28.0939 40.4836 27.3077 41.8043 27.4732C43.3314 27.5973 42.6297 28.756 42.7948 29.4594Z" fill="#DE6225"/>
<path id="Vector_2" d="M22.1998 23.7473C15.8026 23.7473 9.40531 23.7473 3.00806 23.7473C2.26515 23.7473 1.10952 24.1197 0.861884 23.0438C0.572976 21.5955 0.449158 20.0231 0.944429 18.5749C1.06825 18.1611 1.68734 18.3266 2.05879 18.3266C2.67788 18.3266 2.92551 18.7818 2.84297 19.3197C2.47151 21.5955 3.75096 21.6369 5.48441 21.6369C16.7518 21.5955 28.0605 21.5955 39.3279 21.6369C40.8963 21.6369 41.8868 21.43 41.5979 19.568C41.4741 18.7404 41.8043 18.2852 42.7535 18.3266C43.6615 18.368 43.6615 18.9059 43.7441 19.568C44.1155 23.6231 43.9917 23.7886 39.947 23.7886C34.0038 23.7473 28.1018 23.7473 22.1998 23.7473Z" fill="#DE6225"/>
<path id="Vector_3" d="M22.1175 37.28C17.3711 37.28 13.4502 33.9697 12.5422 29.211C12.4184 28.5076 12.0057 27.6386 13.2026 27.4317C14.1519 27.2662 14.6884 27.5559 14.8948 28.6731C15.4313 31.9007 17.3711 34.0524 20.5491 34.7559C24.7589 35.7076 28.2258 33.4317 29.464 29.1697C29.7116 28.3007 29.6703 27.0593 31.1561 27.4731C32.642 27.8869 32.0229 28.9628 31.7752 29.8317C30.4545 34.4662 26.7813 37.3214 22.1175 37.28Z" fill="#DE6225"/>
<path id="Vector_4" d="M27.5651 6.65751C27.5651 8.22992 27.5651 9.84371 27.5651 11.4161C27.5651 12.2023 27.6477 12.9885 26.4507 12.9472C25.2538 12.9058 25.4602 12.0368 25.4602 11.3334C25.4602 8.85061 25.4189 6.36785 25.4602 3.88509C25.5015 2.68509 25.2126 2.18854 23.8919 2.14716C18.9391 2.02302 18.9391 1.98164 18.9391 6.90578C18.9391 8.4782 18.9391 10.092 18.9391 11.6644C18.9391 12.492 18.7328 12.9472 17.7835 12.9472C16.9168 12.9058 16.793 12.4506 16.793 11.7472C16.793 8.35406 16.793 5.00233 16.793 1.60923C16.793 0.574747 17.2882 0.0781955 18.3201 0.119575C20.879 0.119575 23.3966 0.119575 25.9555 0.119575C27.0698 0.119575 27.6064 0.574747 27.5651 1.73337C27.5651 3.34716 27.5651 5.00233 27.5651 6.65751Z" fill="#DE6225"/>
<path id="Vector_5" d="M14.7707 6.16098C14.7707 6.98857 14.7294 7.81615 14.7707 8.64374C14.812 9.47132 14.5643 9.9265 13.6151 9.9265C12.7896 9.9265 12.3769 9.63684 12.3356 8.7265C12.2944 7.81615 12.8722 6.36788 11.9642 6.07822C10.8911 5.78857 10.2307 7.15408 9.52909 7.98167C7.13529 10.7541 6.10347 14.023 6.10347 17.6644C6.10347 18.492 6.39238 19.5265 4.90657 19.5265C3.42075 19.5265 3.70966 18.492 3.70966 17.6644C3.70966 10.9196 6.88765 6.03684 12.542 2.64374C13.9453 1.77477 14.6882 2.22994 14.7707 3.9265C14.812 4.67132 14.7707 5.41615 14.7707 6.16098Z" fill="#DE6225"/>
<path id="Vector_6" d="M29.6698 5.9541C30 4.87823 28.8856 3.05754 30.4127 2.39547C31.7334 1.81616 32.9303 3.22306 33.9621 4.00927C38.7498 7.48513 40.6483 12.3679 40.6896 18.1196C40.6896 18.9886 40.5658 19.5679 39.4927 19.5679C38.4196 19.5679 38.2958 18.9886 38.2958 18.1196C38.337 13.8989 37.3052 10.092 34.086 7.1541C33.5907 6.69892 33.178 5.82996 32.4763 6.07823C31.6509 6.32651 32.1462 7.27823 32.0636 7.89892C32.0223 8.22996 32.0636 8.60237 32.0223 8.93341C31.9811 9.71961 31.4858 9.96789 30.7842 9.96789C30 10.0093 29.6698 9.63685 29.6698 8.85065C29.6698 7.9403 29.6698 7.02996 29.6698 5.9541Z" fill="#DE6225"/>
</g>
</svg>
