<svg width="229" height="72" viewBox="0 0 229 72" fill="none" xmlns="http://www.w3.org/2000/svg">
<g id="Group">
<g id="Group_2">
<g id="Group_3">
<path id="Vector" d="M101.01 56.5774H99.1956C98.9614 56.5774 98.8443 56.5189 98.6687 56.4018C98.5516 56.2847 98.4345 56.1676 98.376 56.0506L97.6149 53.8845H93.0487L92.2877 56.0506C92.2291 56.1676 92.1706 56.2847 91.9949 56.4018C91.8779 56.5189 91.7022 56.5774 91.4681 56.5774H89.5947L94.1024 45.1032H96.5612L101.01 56.5774ZM97.0295 52.1868L95.8002 48.6743C95.7416 48.4987 95.6245 48.2645 95.566 48.0303C95.5074 47.7962 95.3904 47.5035 95.3318 47.2107C95.2733 47.5035 95.1562 47.7962 95.0977 48.0303C95.0391 48.2645 94.922 48.4987 94.8635 48.6743L93.6341 52.1868H97.0295Z" fill="url(#paint0_linear_5002_166)"/>
<path id="Vector_2" d="M107.04 45.0447C107.801 45.0447 108.445 45.1033 109.031 45.2789C109.558 45.396 110.026 45.6301 110.377 45.9228C110.728 46.2155 110.963 46.5083 111.138 46.918C111.314 47.2693 111.372 47.7376 111.372 48.206C111.372 48.4987 111.314 48.7328 111.255 48.967C111.197 49.2012 111.08 49.4353 110.904 49.6695C110.728 49.9037 110.553 50.0793 110.26 50.2549C110.026 50.4306 109.733 50.6062 109.382 50.7233C110.143 50.8989 110.728 51.1916 111.138 51.6014C111.49 52.0112 111.724 52.5381 111.724 53.2406C111.724 53.7089 111.607 54.1772 111.431 54.587C111.255 54.9968 110.963 55.3481 110.611 55.6993C110.26 55.992 109.792 56.2262 109.265 56.4018C108.738 56.5774 108.153 56.636 107.45 56.636H103.001V45.0447H107.04ZM105.343 46.8595V49.9622H106.923C107.275 49.9622 107.567 49.9622 107.801 49.9037C108.036 49.8451 108.27 49.7866 108.445 49.611C108.621 49.4939 108.738 49.3183 108.855 49.1426C108.972 48.967 108.972 48.7328 108.972 48.4401C108.972 48.1474 108.914 47.9133 108.855 47.7376C108.797 47.562 108.68 47.3864 108.504 47.2693C108.328 47.1522 108.153 47.0351 107.918 46.9766C107.684 46.918 107.392 46.918 107.04 46.918H105.343V46.8595ZM107.392 54.7626C107.743 54.7626 108.094 54.7041 108.328 54.6456C108.562 54.5285 108.797 54.4114 108.914 54.2943C109.089 54.1187 109.148 53.9431 109.206 53.7674C109.265 53.5918 109.265 53.3576 109.265 53.182C109.265 52.9478 109.206 52.7137 109.148 52.5381C109.089 52.3624 108.972 52.1868 108.797 52.0697C108.621 51.9526 108.445 51.8356 108.211 51.777C107.977 51.7185 107.684 51.6599 107.275 51.6599H105.226V54.7626H107.392Z" fill="url(#paint1_linear_5002_166)"/>
<path id="Vector_3" d="M122.553 46.9766H119.158V56.5774H116.758V46.9766H113.421V45.0447H122.553V46.9766Z" fill="url(#paint2_linear_5002_166)"/>
<path id="Vector_4" d="M135.667 50.8404C135.667 51.66 135.55 52.4795 135.257 53.182C134.965 53.8845 134.555 54.5285 134.087 55.0554C133.56 55.5822 132.974 55.992 132.213 56.2847C131.511 56.5775 130.691 56.7531 129.813 56.7531C128.935 56.7531 128.115 56.5775 127.413 56.2847C126.71 55.992 126.066 55.5822 125.54 55.0554C125.013 54.5285 124.603 53.8845 124.31 53.182C124.017 52.4795 123.9 51.66 123.9 50.8404C123.9 50.0208 124.017 49.2012 124.31 48.4987C124.603 47.7962 125.013 47.1522 125.54 46.6254C126.066 46.0985 126.652 45.6887 127.413 45.396C128.115 45.1033 128.935 44.9276 129.813 44.9276C130.691 44.9276 131.511 45.1033 132.213 45.396C132.916 45.6887 133.56 46.0985 134.087 46.6254C134.614 47.1522 135.023 47.7962 135.257 48.4987C135.55 49.2012 135.667 49.9622 135.667 50.8404ZM133.267 50.8404C133.267 50.2549 133.209 49.6695 133.033 49.2012C132.857 48.7329 132.623 48.3231 132.33 47.9718C132.038 47.6206 131.686 47.3864 131.218 47.2108C130.808 47.0351 130.34 46.9181 129.755 46.9181C129.228 46.9181 128.759 47.0351 128.291 47.2108C127.881 47.3864 127.471 47.6206 127.179 47.9718C126.886 48.3231 126.652 48.7329 126.476 49.2012C126.301 49.6695 126.242 50.1964 126.242 50.8404C126.242 51.4258 126.301 52.0112 126.476 52.4795C126.652 52.9479 126.886 53.3577 127.179 53.7089C127.471 54.0602 127.823 54.2943 128.291 54.47C128.701 54.6456 129.228 54.7627 129.755 54.7627C130.281 54.7627 130.75 54.6456 131.218 54.47C131.628 54.2943 131.979 54.0602 132.33 53.7089C132.623 53.3577 132.857 52.9479 133.033 52.4795C133.15 51.9527 133.267 51.4258 133.267 50.8404Z" fill="url(#paint3_linear_5002_166)"/>
<path id="Vector_5" d="M150.712 45.0447V56.5189H148.605V49.4939C148.605 49.3183 148.605 49.2012 148.605 49.0255C148.605 48.8499 148.605 48.6743 148.663 48.4987L145.385 54.7626C145.209 55.1139 144.917 55.2895 144.566 55.2895H144.214C144.039 55.2895 143.863 55.231 143.746 55.1724C143.629 55.1139 143.512 54.9383 143.395 54.7626L140.116 48.4987C140.116 48.6743 140.116 48.8499 140.175 49.0255C140.175 49.2012 140.175 49.3768 140.175 49.4939V56.5774H138.067V45.0447H139.882C139.999 45.0447 140.058 45.0447 140.175 45.0447C140.233 45.0447 140.351 45.0447 140.409 45.1032C140.468 45.1032 140.526 45.1618 140.585 45.2203C140.643 45.2789 140.702 45.3374 140.702 45.4545L143.922 51.6014C144.039 51.777 144.097 51.9526 144.214 52.1868C144.273 52.3624 144.39 52.5966 144.448 52.7722C144.507 52.5381 144.624 52.3624 144.683 52.1283C144.741 51.9526 144.858 51.7185 144.975 51.5428L148.195 45.4545C148.254 45.3374 148.312 45.2789 148.371 45.2203C148.429 45.1618 148.488 45.1618 148.546 45.1032C148.605 45.1032 148.663 45.0447 148.781 45.0447C148.839 45.0447 148.956 45.0447 149.073 45.0447H150.712Z" fill="url(#paint4_linear_5002_166)"/>
<path id="Vector_6" d="M164.119 56.5774H162.304C162.07 56.5774 161.953 56.5189 161.777 56.4018C161.66 56.2847 161.543 56.1676 161.484 56.0506L160.723 53.8845H156.157L155.396 56.0506C155.338 56.1676 155.279 56.2847 155.103 56.4018C154.986 56.5189 154.811 56.5774 154.576 56.5774H152.703L157.211 45.1032H159.67L164.119 56.5774ZM160.138 52.1868L158.909 48.6743C158.85 48.4987 158.733 48.2645 158.674 48.0303C158.616 47.7962 158.499 47.5035 158.44 47.2107C158.382 47.5035 158.265 47.7962 158.206 48.0303C158.148 48.2645 158.03 48.4987 157.972 48.6743L156.743 52.1868H160.138Z" fill="url(#paint5_linear_5002_166)"/>
<path id="Vector_7" d="M173.485 46.9766H170.09V56.5774H167.748V46.9766H164.411V45.0447H173.544V46.9766H173.485Z" fill="url(#paint6_linear_5002_166)"/>
<path id="Vector_8" d="M186.013 45.0447V56.5189H183.613V49.7281C183.613 49.4353 183.613 49.1426 183.613 48.8499C183.613 48.5572 183.671 48.206 183.73 47.8547C183.613 48.1474 183.495 48.4401 183.378 48.7328C183.261 49.0255 183.144 49.2597 183.027 49.4353L179.046 55.8749C178.988 55.992 178.929 56.0506 178.871 56.1091C178.812 56.1676 178.695 56.2847 178.636 56.3433C178.578 56.4018 178.461 56.4604 178.344 56.5189C178.227 56.5774 178.11 56.5774 177.993 56.5774H176.178V45.0447H178.578V51.8941C178.578 52.1868 178.578 52.4795 178.578 52.7722C178.578 53.0649 178.519 53.4162 178.461 53.7674C178.578 53.4747 178.695 53.182 178.812 52.8893C178.929 52.5966 179.046 52.3624 179.163 52.1868L183.144 45.7472C183.203 45.6887 183.261 45.5716 183.32 45.513C183.378 45.4545 183.495 45.3374 183.554 45.2789C183.613 45.2203 183.73 45.1618 183.847 45.1032C183.964 45.0447 184.081 45.0447 184.198 45.0447H186.013Z" fill="url(#paint7_linear_5002_166)"/>
<path id="Vector_9" d="M199.712 56.5774H197.546C197.312 56.5774 197.136 56.5189 197.019 56.4018C196.843 56.2847 196.726 56.1091 196.609 55.8749L194.443 52.1283C194.385 52.0112 194.326 51.9526 194.267 51.8356C194.209 51.777 194.092 51.7185 194.033 51.6599C193.975 51.6014 193.858 51.6014 193.741 51.5428C193.624 51.5428 193.506 51.5428 193.389 51.5428H192.16V56.5189H189.76V45.0447H192.16V49.7866H193.214C193.448 49.7866 193.624 49.7281 193.741 49.6695C193.916 49.611 194.033 49.4353 194.15 49.2597L196.492 45.6887C196.609 45.513 196.726 45.3374 196.902 45.2203C197.077 45.1032 197.253 45.0447 197.487 45.0447H199.536L196.551 49.611C196.434 49.8451 196.258 49.9622 196.082 50.1378C195.907 50.2549 195.731 50.372 195.497 50.4306C195.848 50.5476 196.141 50.6647 196.375 50.8989C196.609 51.0745 196.843 51.3672 197.019 51.777L199.712 56.5774Z" fill="url(#paint8_linear_5002_166)"/>
<path id="Vector_10" d="M211.888 56.5774H210.074C209.839 56.5774 209.722 56.5189 209.547 56.4018C209.43 56.2847 209.312 56.1676 209.254 56.0506L208.493 53.8845H203.927L203.166 56.0506C203.107 56.1676 203.048 56.2847 202.873 56.4018C202.756 56.5189 202.58 56.5774 202.346 56.5774H200.473L204.98 45.1032H207.439L211.888 56.5774ZM207.907 52.1868L206.678 48.6743C206.62 48.4987 206.502 48.2645 206.444 48.0303C206.385 47.7962 206.268 47.5035 206.21 47.2107C206.151 47.5035 206.034 47.7962 205.976 48.0303C205.917 48.2645 205.8 48.4987 205.741 48.6743L204.512 52.1868H207.907Z" fill="url(#paint9_linear_5002_166)"/>
</g>
</g>
<g id="Group_4">
<g id="Group_5">
<path id="Vector_11" d="M106.514 16.008V35.7366H102.825V23.3843C102.825 22.9159 102.825 22.4476 102.884 21.9207C102.884 21.3938 102.943 20.867 103.06 20.2815C102.884 20.8084 102.708 21.2768 102.474 21.6865C102.24 22.0963 102.064 22.5061 101.83 22.7988L94.2783 34.5657C94.2198 34.6828 94.1027 34.8584 93.9856 34.9755C93.8685 35.0926 93.7514 35.2097 93.6344 35.3268C93.5173 35.4439 93.3417 35.5024 93.166 35.561C92.9904 35.6195 92.8148 35.678 92.6392 35.678H89.8877V16.008H93.5758V28.3603C93.5758 28.8286 93.5758 29.297 93.5173 29.8239C93.5173 30.3507 93.4587 30.8776 93.3417 31.463C93.5173 30.9362 93.6929 30.4678 93.9271 30.058C94.1612 29.6482 94.3369 29.2384 94.571 28.8872L102.064 17.1203C102.123 17.0032 102.24 16.8276 102.357 16.7105C102.474 16.5934 102.591 16.4763 102.708 16.3592C102.825 16.2422 103.001 16.1836 103.177 16.1251C103.352 16.0665 103.528 16.008 103.704 16.008H106.514Z" fill="url(#paint10_linear_5002_166)"/>
<path id="Vector_12" d="M132.272 16.008V35.7366H129.052V22.9745C129.052 22.4476 129.052 21.9207 129.111 21.3353L123.139 32.5168C122.847 33.0437 122.437 33.3364 121.852 33.3364H121.325C120.739 33.3364 120.329 33.0437 120.037 32.5168L114.007 21.2768C114.007 21.5695 114.066 21.8622 114.066 22.1549C114.066 22.4476 114.066 22.7403 114.066 22.9745V35.678H110.846V16.008H113.597C113.773 16.008 113.89 16.008 114.007 16.008C114.124 16.008 114.241 16.0665 114.3 16.0665C114.417 16.1251 114.475 16.1836 114.534 16.2422C114.592 16.3007 114.709 16.4178 114.768 16.5934L120.681 27.5407C120.856 27.8334 120.973 28.1261 121.091 28.4189C121.208 28.7116 121.325 29.0628 121.5 29.3555C121.617 29.0043 121.734 28.7116 121.91 28.3603C122.027 28.0676 122.203 27.7164 122.32 27.4822L128.116 16.5934C128.174 16.4763 128.291 16.3592 128.35 16.2422C128.408 16.1836 128.525 16.1251 128.642 16.0665C128.759 16.008 128.818 16.008 128.935 16.008C129.052 16.008 129.169 16.008 129.345 16.008H132.272Z" fill="url(#paint11_linear_5002_166)"/>
<path id="Vector_13" d="M153.113 35.7366H149.425V18.818H140.878V35.678H137.189V16.008H153.113V35.7366Z" fill="url(#paint12_linear_5002_166)"/>
<path id="Vector_14" d="M173.661 16.008L165.699 32.9851C165.406 33.5705 165.114 34.0389 164.821 34.4486C164.528 34.8584 164.177 35.1511 163.767 35.3268C163.416 35.5609 163.006 35.678 162.596 35.7951C162.187 35.8536 161.718 35.9122 161.25 35.9122C160.606 35.9122 160.138 35.8536 159.845 35.7366C159.552 35.6195 159.377 35.4439 159.377 35.2097V32.9266H160.43C160.606 32.9266 160.84 32.9266 161.016 32.868C161.25 32.8095 161.426 32.7509 161.66 32.6339C161.835 32.5168 162.069 32.3997 162.245 32.1655C162.421 31.9899 162.596 31.6972 162.772 31.3459L163.533 29.7653L155.63 15.9494H159.084C159.377 15.9494 159.669 16.008 159.845 16.1836C160.021 16.3592 160.196 16.5349 160.313 16.769L164.118 23.9697C164.353 24.3795 164.528 24.7893 164.704 25.1405C164.879 25.5503 164.997 25.9601 165.172 26.3113C165.406 25.4918 165.699 24.6722 166.109 23.9111L169.446 16.7105C169.563 16.5349 169.68 16.3007 169.914 16.1251C170.09 15.9494 170.382 15.8909 170.675 15.8909H173.661V16.008Z" fill="url(#paint13_linear_5002_166)"/>
<path id="Vector_15" d="M190.228 35.7366H186.54V18.818H181.154C181.037 21.2768 180.861 23.4428 180.627 25.1991C180.393 27.0139 180.1 28.5359 179.808 29.8239C179.515 31.1118 179.105 32.107 178.695 32.9266C178.286 33.7462 177.817 34.3316 177.349 34.7999C176.881 35.2682 176.354 35.561 175.768 35.678C175.183 35.8537 174.597 35.9122 174.012 35.9122C173.368 35.9122 172.9 35.8537 172.607 35.7366C172.314 35.6195 172.139 35.4439 172.139 35.2097V32.9266H173.192C173.427 32.9266 173.661 32.9266 173.895 32.868C174.129 32.8095 174.363 32.6924 174.597 32.5168C174.832 32.3412 175.066 32.107 175.3 31.7557C175.534 31.4045 175.768 30.9947 175.944 30.4093C176.178 29.8239 176.354 29.1214 176.529 28.3018C176.705 27.4822 176.881 26.487 177.056 25.3161C177.232 24.1453 177.349 22.7988 177.466 21.2768C177.583 19.7547 177.642 17.9984 177.7 16.008H190.228V35.7366Z" fill="url(#paint14_linear_5002_166)"/>
<path id="Vector_16" d="M202.581 24.1453C203.869 24.1453 204.981 24.2624 205.859 24.5551C206.796 24.8478 207.498 25.1991 208.084 25.7259C208.669 26.1943 209.079 26.7797 209.372 27.4236C209.664 28.0676 209.781 28.7701 209.781 29.5311C209.781 30.4678 209.606 31.2874 209.313 32.0484C208.962 32.8095 208.494 33.4534 207.908 33.9803C207.264 34.5072 206.562 34.917 205.625 35.2097C204.747 35.5024 203.693 35.6195 202.581 35.6195H195.731V16.008H199.42V24.1453H202.581ZM202.581 32.868C203.283 32.868 203.81 32.8095 204.279 32.6339C204.747 32.4582 205.098 32.2826 205.391 31.9899C205.684 31.7557 205.859 31.4045 205.976 31.0532C206.093 30.702 206.152 30.2922 206.152 29.8824C206.152 29.4141 206.093 29.0043 205.976 28.653C205.859 28.3018 205.684 28.0091 205.391 27.7164C205.098 27.4822 204.747 27.248 204.279 27.1309C203.81 27.0139 203.283 26.9553 202.581 26.9553H199.361V32.8095H202.581V32.868Z" fill="url(#paint15_linear_5002_166)"/>
<path id="Vector_17" d="M226.114 31.0532C226.29 31.0532 226.465 31.1118 226.641 31.2874L228.104 32.868C227.285 33.8632 226.348 34.6243 225.177 35.1511C224.007 35.678 222.602 35.9707 220.962 35.9707C219.499 35.9707 218.211 35.7366 217.04 35.2097C215.869 34.6828 214.874 34.0389 214.054 33.1022C213.235 32.2241 212.591 31.1703 212.181 29.9409C211.713 28.7115 211.537 27.3651 211.537 25.9015C211.537 24.438 211.771 23.0915 212.24 21.8622C212.708 20.6328 213.352 19.579 214.23 18.7009C215.108 17.8228 216.103 17.1203 217.274 16.6519C218.445 16.1836 219.792 15.8909 221.197 15.8909C222.66 15.8909 223.889 16.1251 225.002 16.5934C226.114 17.0617 227.051 17.7057 227.87 18.4667L226.641 20.1645C226.582 20.2815 226.465 20.3401 226.348 20.4572C226.231 20.5157 226.055 20.5742 225.88 20.5742C225.763 20.5742 225.587 20.5157 225.47 20.4572C225.353 20.3986 225.177 20.2815 225.002 20.1645C224.826 20.0474 224.65 19.9303 224.416 19.8132C224.182 19.6961 223.948 19.579 223.597 19.4619C223.304 19.3449 222.953 19.2278 222.543 19.1692C222.133 19.1107 221.665 19.0522 221.197 19.0522C220.318 19.0522 219.499 19.2278 218.796 19.5205C218.094 19.8132 217.45 20.2815 216.923 20.867C216.396 21.4524 215.986 22.2134 215.694 23.033C215.401 23.8526 215.284 24.8478 215.284 25.9601C215.284 27.0724 215.459 28.0676 215.752 28.9457C216.045 29.8238 216.513 30.5263 217.04 31.1118C217.567 31.6972 218.211 32.1655 218.913 32.4582C219.616 32.7509 220.435 32.9266 221.255 32.9266C221.782 32.9266 222.192 32.9266 222.602 32.868C223.011 32.8095 223.363 32.7509 223.714 32.6339C224.065 32.5168 224.358 32.3411 224.709 32.1655C225.002 31.9899 225.294 31.7557 225.587 31.463C225.704 31.4045 225.763 31.2874 225.88 31.2874C225.88 31.1118 225.997 31.0532 226.114 31.0532Z" fill="url(#paint16_linear_5002_166)"/>
</g>
</g>
<path id="Vector_18" d="M57.1047 56.5189H52.8896L69.5155 35.8537H73.7305L57.1047 56.5189Z" fill="url(#paint17_linear_5002_166)"/>
<path id="Vector_19" d="M5.11931 44.8106H0.904297L26.2529 13.2565H30.4679L5.11931 44.8106Z" fill="url(#paint18_linear_5002_166)"/>
<path id="Vector_20" d="M20.1056 44.8105H11.4414L46.7421 0.904205H55.3477L20.1056 44.8105Z" fill="url(#paint19_linear_5002_166)"/>
<path id="Vector_21" d="M24.4377 71.0958H15.832L51.0742 27.1895H59.7384L24.4377 71.0958Z" fill="url(#paint20_linear_5002_166)"/>
<path id="Vector_22" d="M40.7131 63.8952H36.498L70.2767 21.9207H74.4331L40.7131 63.8952Z" fill="url(#paint21_linear_5002_166)"/>
<path id="Vector_23" d="M21.9797 55.5822H17.7646L56.5779 7.28525H60.7929L21.9797 55.5822Z" fill="url(#paint22_linear_5002_166)"/>
</g>
<defs>
<linearGradient id="paint0_linear_5002_166" x1="161.99" y1="-4.67307" x2="146.425" y2="80.0289" gradientUnits="userSpaceOnUse">
<stop stop-color="#3E140F"/>
<stop offset="0.0817992" stop-color="#4F120E"/>
<stop offset="0.2434" stop-color="#7A0F0C"/>
<stop offset="0.4671" stop-color="#C00908"/>
<stop offset="0.601" stop-color="#ED0606"/>
<stop offset="0.6403" stop-color="#EE0F06"/>
<stop offset="0.7038" stop-color="#F02707"/>
<stop offset="0.7835" stop-color="#F34D08"/>
<stop offset="0.8763" stop-color="#F88309"/>
<stop offset="0.979" stop-color="#FEC70B"/>
<stop offset="1" stop-color="#FFD60B"/>
</linearGradient>
<linearGradient id="paint1_linear_5002_166" x1="161.99" y1="-4.67305" x2="146.425" y2="80.0289" gradientUnits="userSpaceOnUse">
<stop stop-color="#3E140F"/>
<stop offset="0.0817992" stop-color="#4F120E"/>
<stop offset="0.2434" stop-color="#7A0F0C"/>
<stop offset="0.4671" stop-color="#C00908"/>
<stop offset="0.601" stop-color="#ED0606"/>
<stop offset="0.6403" stop-color="#EE0F06"/>
<stop offset="0.7038" stop-color="#F02707"/>
<stop offset="0.7835" stop-color="#F34D08"/>
<stop offset="0.8763" stop-color="#F88309"/>
<stop offset="0.979" stop-color="#FEC70B"/>
<stop offset="1" stop-color="#FFD60B"/>
</linearGradient>
<linearGradient id="paint2_linear_5002_166" x1="161.99" y1="-4.67306" x2="146.425" y2="80.0289" gradientUnits="userSpaceOnUse">
<stop stop-color="#3E140F"/>
<stop offset="0.0817992" stop-color="#4F120E"/>
<stop offset="0.2434" stop-color="#7A0F0C"/>
<stop offset="0.4671" stop-color="#C00908"/>
<stop offset="0.601" stop-color="#ED0606"/>
<stop offset="0.6403" stop-color="#EE0F06"/>
<stop offset="0.7038" stop-color="#F02707"/>
<stop offset="0.7835" stop-color="#F34D08"/>
<stop offset="0.8763" stop-color="#F88309"/>
<stop offset="0.979" stop-color="#FEC70B"/>
<stop offset="1" stop-color="#FFD60B"/>
</linearGradient>
<linearGradient id="paint3_linear_5002_166" x1="161.99" y1="-4.67306" x2="146.425" y2="80.0289" gradientUnits="userSpaceOnUse">
<stop stop-color="#3E140F"/>
<stop offset="0.0817992" stop-color="#4F120E"/>
<stop offset="0.2434" stop-color="#7A0F0C"/>
<stop offset="0.4671" stop-color="#C00908"/>
<stop offset="0.601" stop-color="#ED0606"/>
<stop offset="0.6403" stop-color="#EE0F06"/>
<stop offset="0.7038" stop-color="#F02707"/>
<stop offset="0.7835" stop-color="#F34D08"/>
<stop offset="0.8763" stop-color="#F88309"/>
<stop offset="0.979" stop-color="#FEC70B"/>
<stop offset="1" stop-color="#FFD60B"/>
</linearGradient>
<linearGradient id="paint4_linear_5002_166" x1="161.99" y1="-4.67306" x2="146.425" y2="80.0289" gradientUnits="userSpaceOnUse">
<stop stop-color="#3E140F"/>
<stop offset="0.0817992" stop-color="#4F120E"/>
<stop offset="0.2434" stop-color="#7A0F0C"/>
<stop offset="0.4671" stop-color="#C00908"/>
<stop offset="0.601" stop-color="#ED0606"/>
<stop offset="0.6403" stop-color="#EE0F06"/>
<stop offset="0.7038" stop-color="#F02707"/>
<stop offset="0.7835" stop-color="#F34D08"/>
<stop offset="0.8763" stop-color="#F88309"/>
<stop offset="0.979" stop-color="#FEC70B"/>
<stop offset="1" stop-color="#FFD60B"/>
</linearGradient>
<linearGradient id="paint5_linear_5002_166" x1="161.99" y1="-4.67307" x2="146.426" y2="80.0289" gradientUnits="userSpaceOnUse">
<stop stop-color="#3E140F"/>
<stop offset="0.0817992" stop-color="#4F120E"/>
<stop offset="0.2434" stop-color="#7A0F0C"/>
<stop offset="0.4671" stop-color="#C00908"/>
<stop offset="0.601" stop-color="#ED0606"/>
<stop offset="0.6403" stop-color="#EE0F06"/>
<stop offset="0.7038" stop-color="#F02707"/>
<stop offset="0.7835" stop-color="#F34D08"/>
<stop offset="0.8763" stop-color="#F88309"/>
<stop offset="0.979" stop-color="#FEC70B"/>
<stop offset="1" stop-color="#FFD60B"/>
</linearGradient>
<linearGradient id="paint6_linear_5002_166" x1="161.99" y1="-4.67306" x2="146.425" y2="80.0289" gradientUnits="userSpaceOnUse">
<stop stop-color="#3E140F"/>
<stop offset="0.0817992" stop-color="#4F120E"/>
<stop offset="0.2434" stop-color="#7A0F0C"/>
<stop offset="0.4671" stop-color="#C00908"/>
<stop offset="0.601" stop-color="#ED0606"/>
<stop offset="0.6403" stop-color="#EE0F06"/>
<stop offset="0.7038" stop-color="#F02707"/>
<stop offset="0.7835" stop-color="#F34D08"/>
<stop offset="0.8763" stop-color="#F88309"/>
<stop offset="0.979" stop-color="#FEC70B"/>
<stop offset="1" stop-color="#FFD60B"/>
</linearGradient>
<linearGradient id="paint7_linear_5002_166" x1="161.99" y1="-4.67306" x2="146.425" y2="80.0289" gradientUnits="userSpaceOnUse">
<stop stop-color="#3E140F"/>
<stop offset="0.0817992" stop-color="#4F120E"/>
<stop offset="0.2434" stop-color="#7A0F0C"/>
<stop offset="0.4671" stop-color="#C00908"/>
<stop offset="0.601" stop-color="#ED0606"/>
<stop offset="0.6403" stop-color="#EE0F06"/>
<stop offset="0.7038" stop-color="#F02707"/>
<stop offset="0.7835" stop-color="#F34D08"/>
<stop offset="0.8763" stop-color="#F88309"/>
<stop offset="0.979" stop-color="#FEC70B"/>
<stop offset="1" stop-color="#FFD60B"/>
</linearGradient>
<linearGradient id="paint8_linear_5002_166" x1="161.99" y1="-4.67306" x2="146.425" y2="80.0289" gradientUnits="userSpaceOnUse">
<stop stop-color="#3E140F"/>
<stop offset="0.0817992" stop-color="#4F120E"/>
<stop offset="0.2434" stop-color="#7A0F0C"/>
<stop offset="0.4671" stop-color="#C00908"/>
<stop offset="0.601" stop-color="#ED0606"/>
<stop offset="0.6403" stop-color="#EE0F06"/>
<stop offset="0.7038" stop-color="#F02707"/>
<stop offset="0.7835" stop-color="#F34D08"/>
<stop offset="0.8763" stop-color="#F88309"/>
<stop offset="0.979" stop-color="#FEC70B"/>
<stop offset="1" stop-color="#FFD60B"/>
</linearGradient>
<linearGradient id="paint9_linear_5002_166" x1="161.99" y1="-4.67308" x2="146.425" y2="80.0289" gradientUnits="userSpaceOnUse">
<stop stop-color="#3E140F"/>
<stop offset="0.0817992" stop-color="#4F120E"/>
<stop offset="0.2434" stop-color="#7A0F0C"/>
<stop offset="0.4671" stop-color="#C00908"/>
<stop offset="0.601" stop-color="#ED0606"/>
<stop offset="0.6403" stop-color="#EE0F06"/>
<stop offset="0.7038" stop-color="#F02707"/>
<stop offset="0.7835" stop-color="#F34D08"/>
<stop offset="0.8763" stop-color="#F88309"/>
<stop offset="0.979" stop-color="#FEC70B"/>
<stop offset="1" stop-color="#FFD60B"/>
</linearGradient>
<linearGradient id="paint10_linear_5002_166" x1="164.258" y1="-4.2563" x2="148.693" y2="80.4457" gradientUnits="userSpaceOnUse">
<stop stop-color="#3E140F"/>
<stop offset="0.0817992" stop-color="#4F120E"/>
<stop offset="0.2434" stop-color="#7A0F0C"/>
<stop offset="0.4671" stop-color="#C00908"/>
<stop offset="0.601" stop-color="#ED0606"/>
<stop offset="0.6403" stop-color="#EE0F06"/>
<stop offset="0.7038" stop-color="#F02707"/>
<stop offset="0.7835" stop-color="#F34D08"/>
<stop offset="0.8763" stop-color="#F88309"/>
<stop offset="0.979" stop-color="#FEC70B"/>
<stop offset="1" stop-color="#FFD60B"/>
</linearGradient>
<linearGradient id="paint11_linear_5002_166" x1="164.258" y1="-4.2563" x2="148.693" y2="80.4457" gradientUnits="userSpaceOnUse">
<stop stop-color="#3E140F"/>
<stop offset="0.0817992" stop-color="#4F120E"/>
<stop offset="0.2434" stop-color="#7A0F0C"/>
<stop offset="0.4671" stop-color="#C00908"/>
<stop offset="0.601" stop-color="#ED0606"/>
<stop offset="0.6403" stop-color="#EE0F06"/>
<stop offset="0.7038" stop-color="#F02707"/>
<stop offset="0.7835" stop-color="#F34D08"/>
<stop offset="0.8763" stop-color="#F88309"/>
<stop offset="0.979" stop-color="#FEC70B"/>
<stop offset="1" stop-color="#FFD60B"/>
</linearGradient>
<linearGradient id="paint12_linear_5002_166" x1="164.258" y1="-4.2563" x2="148.693" y2="80.4457" gradientUnits="userSpaceOnUse">
<stop stop-color="#3E140F"/>
<stop offset="0.0817992" stop-color="#4F120E"/>
<stop offset="0.2434" stop-color="#7A0F0C"/>
<stop offset="0.4671" stop-color="#C00908"/>
<stop offset="0.601" stop-color="#ED0606"/>
<stop offset="0.6403" stop-color="#EE0F06"/>
<stop offset="0.7038" stop-color="#F02707"/>
<stop offset="0.7835" stop-color="#F34D08"/>
<stop offset="0.8763" stop-color="#F88309"/>
<stop offset="0.979" stop-color="#FEC70B"/>
<stop offset="1" stop-color="#FFD60B"/>
</linearGradient>
<linearGradient id="paint13_linear_5002_166" x1="164.258" y1="-4.25631" x2="148.693" y2="80.4457" gradientUnits="userSpaceOnUse">
<stop stop-color="#3E140F"/>
<stop offset="0.0817992" stop-color="#4F120E"/>
<stop offset="0.2434" stop-color="#7A0F0C"/>
<stop offset="0.4671" stop-color="#C00908"/>
<stop offset="0.601" stop-color="#ED0606"/>
<stop offset="0.6403" stop-color="#EE0F06"/>
<stop offset="0.7038" stop-color="#F02707"/>
<stop offset="0.7835" stop-color="#F34D08"/>
<stop offset="0.8763" stop-color="#F88309"/>
<stop offset="0.979" stop-color="#FEC70B"/>
<stop offset="1" stop-color="#FFD60B"/>
</linearGradient>
<linearGradient id="paint14_linear_5002_166" x1="164.258" y1="-4.2563" x2="148.693" y2="80.4457" gradientUnits="userSpaceOnUse">
<stop stop-color="#3E140F"/>
<stop offset="0.0817992" stop-color="#4F120E"/>
<stop offset="0.2434" stop-color="#7A0F0C"/>
<stop offset="0.4671" stop-color="#C00908"/>
<stop offset="0.601" stop-color="#ED0606"/>
<stop offset="0.6403" stop-color="#EE0F06"/>
<stop offset="0.7038" stop-color="#F02707"/>
<stop offset="0.7835" stop-color="#F34D08"/>
<stop offset="0.8763" stop-color="#F88309"/>
<stop offset="0.979" stop-color="#FEC70B"/>
<stop offset="1" stop-color="#FFD60B"/>
</linearGradient>
<linearGradient id="paint15_linear_5002_166" x1="164.259" y1="-4.2563" x2="148.694" y2="80.4457" gradientUnits="userSpaceOnUse">
<stop stop-color="#3E140F"/>
<stop offset="0.0817992" stop-color="#4F120E"/>
<stop offset="0.2434" stop-color="#7A0F0C"/>
<stop offset="0.4671" stop-color="#C00908"/>
<stop offset="0.601" stop-color="#ED0606"/>
<stop offset="0.6403" stop-color="#EE0F06"/>
<stop offset="0.7038" stop-color="#F02707"/>
<stop offset="0.7835" stop-color="#F34D08"/>
<stop offset="0.8763" stop-color="#F88309"/>
<stop offset="0.979" stop-color="#FEC70B"/>
<stop offset="1" stop-color="#FFD60B"/>
</linearGradient>
<linearGradient id="paint16_linear_5002_166" x1="164.258" y1="-4.25631" x2="148.693" y2="80.4457" gradientUnits="userSpaceOnUse">
<stop stop-color="#3E140F"/>
<stop offset="0.0817992" stop-color="#4F120E"/>
<stop offset="0.2434" stop-color="#7A0F0C"/>
<stop offset="0.4671" stop-color="#C00908"/>
<stop offset="0.601" stop-color="#ED0606"/>
<stop offset="0.6403" stop-color="#EE0F06"/>
<stop offset="0.7038" stop-color="#F02707"/>
<stop offset="0.7835" stop-color="#F34D08"/>
<stop offset="0.8763" stop-color="#F88309"/>
<stop offset="0.979" stop-color="#FEC70B"/>
<stop offset="1" stop-color="#FFD60B"/>
</linearGradient>
<linearGradient id="paint17_linear_5002_166" x1="75.5878" y1="-20.5505" x2="60.0229" y2="64.1515" gradientUnits="userSpaceOnUse">
<stop stop-color="#3E140F"/>
<stop offset="0.0817992" stop-color="#4F120E"/>
<stop offset="0.2434" stop-color="#7A0F0C"/>
<stop offset="0.4671" stop-color="#C00908"/>
<stop offset="0.601" stop-color="#ED0606"/>
<stop offset="0.6403" stop-color="#EE0F06"/>
<stop offset="0.7038" stop-color="#F02707"/>
<stop offset="0.7835" stop-color="#F34D08"/>
<stop offset="0.8763" stop-color="#F88309"/>
<stop offset="0.979" stop-color="#FEC70B"/>
<stop offset="1" stop-color="#FFD60B"/>
</linearGradient>
<linearGradient id="paint18_linear_5002_166" x1="26.4628" y1="-29.5777" x2="10.8978" y2="55.1243" gradientUnits="userSpaceOnUse">
<stop stop-color="#3E140F"/>
<stop offset="0.0817992" stop-color="#4F120E"/>
<stop offset="0.2434" stop-color="#7A0F0C"/>
<stop offset="0.4671" stop-color="#C00908"/>
<stop offset="0.601" stop-color="#ED0606"/>
<stop offset="0.6403" stop-color="#EE0F06"/>
<stop offset="0.7038" stop-color="#F02707"/>
<stop offset="0.7835" stop-color="#F34D08"/>
<stop offset="0.8763" stop-color="#F88309"/>
<stop offset="0.979" stop-color="#FEC70B"/>
<stop offset="1" stop-color="#FFD60B"/>
</linearGradient>
<linearGradient id="paint19_linear_5002_166" x1="42.4905" y1="-26.6324" x2="26.9256" y2="58.0696" gradientUnits="userSpaceOnUse">
<stop stop-color="#3E140F"/>
<stop offset="0.0817992" stop-color="#4F120E"/>
<stop offset="0.2434" stop-color="#7A0F0C"/>
<stop offset="0.4671" stop-color="#C00908"/>
<stop offset="0.601" stop-color="#ED0606"/>
<stop offset="0.6403" stop-color="#EE0F06"/>
<stop offset="0.7038" stop-color="#F02707"/>
<stop offset="0.7835" stop-color="#F34D08"/>
<stop offset="0.8763" stop-color="#F88309"/>
<stop offset="0.979" stop-color="#FEC70B"/>
<stop offset="1" stop-color="#FFD60B"/>
</linearGradient>
<linearGradient id="paint20_linear_5002_166" x1="51.4171" y1="-24.9921" x2="35.8522" y2="59.71" gradientUnits="userSpaceOnUse">
<stop stop-color="#3E140F"/>
<stop offset="0.0817992" stop-color="#4F120E"/>
<stop offset="0.2434" stop-color="#7A0F0C"/>
<stop offset="0.4671" stop-color="#C00908"/>
<stop offset="0.601" stop-color="#ED0606"/>
<stop offset="0.6403" stop-color="#EE0F06"/>
<stop offset="0.7038" stop-color="#F02707"/>
<stop offset="0.7835" stop-color="#F34D08"/>
<stop offset="0.8763" stop-color="#F88309"/>
<stop offset="0.979" stop-color="#FEC70B"/>
<stop offset="1" stop-color="#FFD60B"/>
</linearGradient>
<linearGradient id="paint21_linear_5002_166" x1="67.4204" y1="-22.0514" x2="51.8555" y2="62.6506" gradientUnits="userSpaceOnUse">
<stop stop-color="#3E140F"/>
<stop offset="0.0817992" stop-color="#4F120E"/>
<stop offset="0.2434" stop-color="#7A0F0C"/>
<stop offset="0.4671" stop-color="#C00908"/>
<stop offset="0.601" stop-color="#ED0606"/>
<stop offset="0.6403" stop-color="#EE0F06"/>
<stop offset="0.7038" stop-color="#F02707"/>
<stop offset="0.7835" stop-color="#F34D08"/>
<stop offset="0.8763" stop-color="#F88309"/>
<stop offset="0.979" stop-color="#FEC70B"/>
<stop offset="1" stop-color="#FFD60B"/>
</linearGradient>
<linearGradient id="paint22_linear_5002_166" x1="49.7169" y1="-25.3046" x2="34.152" y2="59.3974" gradientUnits="userSpaceOnUse">
<stop stop-color="#3E140F"/>
<stop offset="0.0817992" stop-color="#4F120E"/>
<stop offset="0.2434" stop-color="#7A0F0C"/>
<stop offset="0.4671" stop-color="#C00908"/>
<stop offset="0.601" stop-color="#ED0606"/>
<stop offset="0.6403" stop-color="#EE0F06"/>
<stop offset="0.7038" stop-color="#F02707"/>
<stop offset="0.7835" stop-color="#F34D08"/>
<stop offset="0.8763" stop-color="#F88309"/>
<stop offset="0.979" stop-color="#FEC70B"/>
<stop offset="1" stop-color="#FFD60B"/>
</linearGradient>
</defs>
</svg>
