<svg width="194" height="60" viewBox="0 0 194 60" fill="none" xmlns="http://www.w3.org/2000/svg">
<g id="Group">
<g id="Group_2">
<g id="Group_3">
<path id="Vector" d="M85.4774 47.5359H83.9277C83.7277 47.5359 83.6278 47.4859 83.4778 47.386C83.3778 47.286 83.2778 47.186 83.2278 47.086L82.578 45.2364H78.6788L78.029 47.086C77.979 47.186 77.929 47.286 77.779 47.386C77.6791 47.4859 77.5291 47.5359 77.3291 47.5359H75.7295L79.5786 37.7381H81.6782L85.4774 47.5359ZM82.0781 43.7867L81.0283 40.7874C80.9783 40.6374 80.8784 40.4375 80.8284 40.2375C80.7784 40.0376 80.6784 39.7876 80.6284 39.5377C80.5784 39.7876 80.4784 40.0376 80.4285 40.2375C80.3785 40.4375 80.2785 40.6374 80.2285 40.7874L79.1787 43.7867H82.0781Z" fill="white"/>
<path id="Vector_2" d="M90.626 37.688C91.2759 37.688 91.8257 37.738 92.3256 37.888C92.7755 37.988 93.1754 38.1879 93.4754 38.4379C93.7753 38.6878 93.9753 38.9377 94.1252 39.2877C94.2752 39.5876 94.3252 39.9875 94.3252 40.3874C94.3252 40.6374 94.2752 40.8373 94.2252 41.0373C94.1752 41.2372 94.0752 41.4372 93.9253 41.6372C93.7753 41.8371 93.6253 41.9871 93.3754 42.137C93.1754 42.287 92.9255 42.437 92.6256 42.537C93.2754 42.6869 93.7753 42.9369 94.1252 43.2868C94.4252 43.6367 94.6251 44.0866 94.6251 44.6865C94.6251 45.0864 94.5252 45.4863 94.3752 45.8362C94.2252 46.1862 93.9753 46.4861 93.6753 46.786C93.3754 47.036 92.9755 47.2359 92.5256 47.3859C92.0757 47.5359 91.5758 47.5858 90.9759 47.5858H87.1768V37.688H90.626ZM89.1763 39.2377V41.8871H90.526C90.826 41.8871 91.0759 41.8871 91.2759 41.8371C91.4758 41.7871 91.6758 41.7371 91.8257 41.5872C91.9757 41.4872 92.0757 41.3372 92.1757 41.1873C92.2756 41.0373 92.2756 40.8373 92.2756 40.5874C92.2756 40.3374 92.2257 40.1375 92.1757 39.9875C92.1257 39.8375 92.0257 39.6876 91.8757 39.5876C91.7258 39.4876 91.5758 39.3876 91.3758 39.3377C91.1759 39.2877 90.9259 39.2877 90.626 39.2877H89.1763V39.2377ZM90.9259 45.9862C91.2259 45.9862 91.5258 45.9362 91.7258 45.8862C91.9257 45.7862 92.1257 45.6863 92.2257 45.5863C92.3756 45.4363 92.4256 45.2864 92.4756 45.1364C92.5256 44.9864 92.5256 44.7865 92.5256 44.6365C92.5256 44.4365 92.4756 44.2366 92.4256 44.0866C92.3756 43.9366 92.2756 43.7867 92.1257 43.6867C91.9757 43.5867 91.8257 43.4867 91.6258 43.4368C91.4258 43.3868 91.1759 43.3368 90.826 43.3368H89.0763V45.9862H90.9259Z" fill="white"/>
<path id="Vector_3" d="M103.873 39.3377H100.974V47.5359H98.9246V39.3377H96.0752V37.688H103.873V39.3377Z" fill="white"/>
<path id="Vector_4" d="M115.071 42.637C115.071 43.3368 114.971 44.0367 114.721 44.6365C114.471 45.2364 114.121 45.7863 113.722 46.2362C113.272 46.6861 112.772 47.036 112.122 47.2859C111.522 47.5359 110.822 47.6859 110.072 47.6859C109.322 47.6859 108.623 47.5359 108.023 47.2859C107.423 47.036 106.873 46.6861 106.423 46.2362C105.973 45.7863 105.623 45.2364 105.373 44.6365C105.123 44.0367 105.023 43.3368 105.023 42.637C105.023 41.9371 105.123 41.2373 105.373 40.6374C105.623 40.0375 105.973 39.4877 106.423 39.0378C106.873 38.5879 107.373 38.2379 108.023 37.988C108.623 37.738 109.322 37.5881 110.072 37.5881C110.822 37.5881 111.522 37.738 112.122 37.988C112.722 38.2379 113.272 38.5879 113.722 39.0378C114.171 39.4877 114.521 40.0375 114.721 40.6374C114.971 41.2373 115.071 41.8871 115.071 42.637ZM113.022 42.637C113.022 42.1371 112.972 41.6372 112.822 41.2373C112.672 40.8374 112.472 40.4874 112.222 40.1875C111.972 39.8876 111.672 39.6876 111.272 39.5376C110.922 39.3877 110.522 39.2877 110.022 39.2877C109.572 39.2877 109.173 39.3877 108.773 39.5376C108.423 39.6876 108.073 39.8876 107.823 40.1875C107.573 40.4874 107.373 40.8374 107.223 41.2373C107.073 41.6372 107.023 42.0871 107.023 42.637C107.023 43.1369 107.073 43.6367 107.223 44.0367C107.373 44.4366 107.573 44.7865 107.823 45.0864C108.073 45.3864 108.373 45.5863 108.773 45.7363C109.123 45.8863 109.572 45.9862 110.022 45.9862C110.472 45.9862 110.872 45.8863 111.272 45.7363C111.622 45.5863 111.922 45.3864 112.222 45.0864C112.472 44.7865 112.672 44.4366 112.822 44.0367C112.922 43.5868 113.022 43.1369 113.022 42.637Z" fill="white"/>
<path id="Vector_5" d="M127.918 37.688V47.4859H126.118V41.4872C126.118 41.3372 126.118 41.2372 126.118 41.0873C126.118 40.9373 126.118 40.7873 126.168 40.6374L123.369 45.9862C123.219 46.2861 122.969 46.4361 122.669 46.4361H122.369C122.219 46.4361 122.069 46.3861 121.969 46.3361C121.869 46.2861 121.769 46.1362 121.669 45.9862L118.87 40.6374C118.87 40.7873 118.87 40.9373 118.92 41.0873C118.92 41.2372 118.92 41.3872 118.92 41.4872V47.5359H117.12V37.688H118.67C118.77 37.688 118.82 37.688 118.92 37.688C118.97 37.688 119.07 37.688 119.12 37.738C119.17 37.738 119.22 37.788 119.27 37.838C119.32 37.888 119.37 37.938 119.37 38.0379L122.119 43.2868C122.219 43.4368 122.269 43.5867 122.369 43.7867C122.419 43.9366 122.519 44.1366 122.569 44.2866C122.619 44.0866 122.719 43.9366 122.769 43.7367C122.819 43.5867 122.919 43.3868 123.019 43.2368L125.768 38.0379C125.818 37.938 125.868 37.888 125.918 37.838C125.968 37.788 126.018 37.788 126.068 37.738C126.118 37.738 126.168 37.688 126.268 37.688C126.318 37.688 126.418 37.688 126.518 37.688H127.918Z" fill="white"/>
<path id="Vector_6" d="M139.365 47.5359H137.815C137.615 47.5359 137.515 47.4859 137.365 47.386C137.266 47.286 137.166 47.186 137.116 47.086L136.466 45.2364H132.567L131.917 47.086C131.867 47.186 131.817 47.286 131.667 47.386C131.567 47.4859 131.417 47.5359 131.217 47.5359H129.617L133.466 37.7381H135.566L139.365 47.5359ZM135.966 43.7867L134.916 40.7874C134.866 40.6374 134.766 40.4375 134.716 40.2375C134.666 40.0376 134.566 39.7876 134.516 39.5377C134.466 39.7876 134.366 40.0376 134.316 40.2375C134.266 40.4375 134.166 40.6374 134.116 40.7874L133.066 43.7867H135.966Z" fill="white"/>
<path id="Vector_7" d="M147.364 39.3377H144.464V47.5359H142.465V39.3377H139.615V37.688H147.414V39.3377H147.364Z" fill="white"/>
<path id="Vector_8" d="M158.061 37.688V47.4859H156.012V41.6871C156.012 41.4372 156.012 41.1873 156.012 40.9373C156.012 40.6874 156.062 40.3874 156.112 40.0875C156.012 40.3374 155.912 40.5874 155.812 40.8373C155.712 41.0873 155.612 41.2872 155.512 41.4372L152.113 46.936C152.063 47.036 152.013 47.086 151.963 47.1359C151.913 47.1859 151.813 47.2859 151.763 47.3359C151.713 47.3859 151.613 47.4359 151.513 47.4859C151.413 47.5359 151.313 47.5359 151.213 47.5359H149.663V37.688H151.713V43.5367C151.713 43.7867 151.713 44.0366 151.713 44.2866C151.713 44.5365 151.663 44.8365 151.613 45.1364C151.713 44.8864 151.813 44.6365 151.913 44.3866C152.013 44.1366 152.113 43.9366 152.213 43.7867L155.612 38.2879C155.662 38.2379 155.712 38.1379 155.762 38.0879C155.812 38.0379 155.912 37.938 155.962 37.888C156.012 37.838 156.112 37.788 156.212 37.738C156.312 37.688 156.412 37.688 156.512 37.688H158.061Z" fill="white"/>
<path id="Vector_9" d="M169.759 47.5359H167.909C167.709 47.5359 167.559 47.4859 167.459 47.3859C167.309 47.2859 167.209 47.1359 167.109 46.936L165.26 43.7367C165.21 43.6367 165.16 43.5867 165.11 43.4867C165.06 43.4368 164.96 43.3868 164.91 43.3368C164.86 43.2868 164.76 43.2868 164.66 43.2368C164.56 43.2368 164.46 43.2368 164.36 43.2368H163.31V47.4859H161.261V37.688H163.31V41.7371H164.21C164.41 41.7371 164.56 41.6871 164.66 41.6372C164.81 41.5872 164.91 41.4372 165.01 41.2872L167.009 38.2379C167.109 38.0879 167.209 37.938 167.359 37.838C167.509 37.738 167.659 37.688 167.859 37.688H169.609L167.059 41.5872C166.959 41.7871 166.81 41.8871 166.66 42.0371C166.51 42.137 166.36 42.237 166.16 42.287C166.46 42.387 166.71 42.487 166.909 42.6869C167.109 42.8369 167.309 43.0868 167.459 43.4368L169.759 47.5359Z" fill="white"/>
<path id="Vector_10" d="M180.156 47.5359H178.606C178.406 47.5359 178.306 47.4859 178.157 47.386C178.057 47.286 177.957 47.186 177.907 47.086L177.257 45.2364H173.358L172.708 47.086C172.658 47.186 172.608 47.286 172.458 47.386C172.358 47.4859 172.208 47.5359 172.008 47.5359H170.408L174.257 37.7381H176.357L180.156 47.5359ZM176.757 43.7867L175.707 40.7874C175.657 40.6374 175.557 40.4375 175.507 40.2375C175.457 40.0376 175.357 39.7876 175.307 39.5377C175.257 39.7876 175.157 40.0376 175.107 40.2375C175.057 40.4375 174.957 40.6374 174.907 40.7874L173.857 43.7867H176.757Z" fill="white"/>
</g>
</g>
<g id="Group_4">
<g id="Group_5">
<path id="Vector_11" d="M90.1764 12.8935V29.7398H87.0271V19.1921C87.0271 18.7922 87.0271 18.3923 87.0771 17.9424C87.0771 17.4925 87.127 17.0426 87.227 16.5427C87.0771 16.9926 86.9271 17.3925 86.7271 17.7424C86.5272 18.0923 86.3772 18.4422 86.1773 18.6922L79.7287 28.74C79.6787 28.84 79.5787 28.9899 79.4787 29.0899C79.3787 29.1899 79.2788 29.2899 79.1788 29.3898C79.0788 29.4898 78.9288 29.5398 78.7789 29.5898C78.6289 29.6398 78.4789 29.6898 78.329 29.6898H75.9795V12.8935H79.1288V23.4412C79.1288 23.8411 79.1288 24.241 79.0788 24.6909C79.0788 25.1408 79.0288 25.5907 78.9288 26.0906C79.0788 25.6407 79.2288 25.2408 79.4287 24.8908C79.6287 24.5409 79.7787 24.191 79.9786 23.8911L86.3772 13.8433C86.4272 13.7433 86.5272 13.5933 86.6272 13.4933C86.7271 13.3934 86.8271 13.2934 86.9271 13.1934C87.0271 13.0934 87.177 13.0434 87.327 12.9934C87.477 12.9435 87.6269 12.8935 87.7769 12.8935H90.1764Z" fill="white"/>
<path id="Vector_12" d="M112.171 12.8935V29.7398H109.422V18.8422C109.422 18.3923 109.422 17.9424 109.472 17.4425L104.373 26.9904C104.123 27.4403 103.773 27.6902 103.273 27.6902H102.823C102.323 27.6902 101.973 27.4403 101.723 26.9904L96.5744 17.3925C96.5744 17.6424 96.6244 17.8924 96.6244 18.1423C96.6244 18.3923 96.6244 18.6422 96.6244 18.8422V29.6898H93.875V12.8935H96.2245C96.3745 12.8935 96.4744 12.8935 96.5744 12.8935C96.6744 12.8935 96.7744 12.9435 96.8244 12.9435C96.9243 12.9934 96.9743 13.0434 97.0243 13.0934C97.0743 13.1434 97.1743 13.2434 97.2243 13.3934L102.273 22.7413C102.423 22.9912 102.523 23.2412 102.623 23.4911C102.723 23.7411 102.823 24.041 102.973 24.291C103.073 23.991 103.173 23.7411 103.323 23.4412C103.423 23.1912 103.573 22.8913 103.673 22.6913L108.622 13.3934C108.672 13.2934 108.772 13.1934 108.822 13.0934C108.872 13.0434 108.972 12.9934 109.072 12.9435C109.172 12.8935 109.222 12.8935 109.322 12.8935C109.422 12.8935 109.522 12.8935 109.672 12.8935H112.171Z" fill="white"/>
<path id="Vector_13" d="M129.967 29.7398H126.818V15.2929H119.519V29.6898H116.37V12.8935H129.967V29.7398Z" fill="white"/>
<path id="Vector_14" d="M147.514 12.8935L140.715 27.3903C140.465 27.8902 140.215 28.2901 139.965 28.64C139.716 28.99 139.416 29.2399 139.066 29.3899C138.766 29.5898 138.416 29.6898 138.066 29.7898C137.716 29.8398 137.316 29.8898 136.916 29.8898C136.366 29.8898 135.966 29.8398 135.716 29.7398C135.466 29.6398 135.316 29.4899 135.316 29.2899V27.3403H136.216C136.366 27.3403 136.566 27.3403 136.716 27.2903C136.916 27.2403 137.066 27.1904 137.266 27.0904C137.416 26.9904 137.616 26.8904 137.766 26.6905C137.916 26.5405 138.066 26.2906 138.216 25.9906L138.866 24.6409L132.117 12.8435H135.067C135.316 12.8435 135.566 12.8935 135.716 13.0435C135.866 13.1934 136.016 13.3434 136.116 13.5434L139.366 19.692C139.566 20.0419 139.716 20.3919 139.865 20.6918C140.015 21.0417 140.115 21.3916 140.265 21.6916C140.465 20.9917 140.715 20.2919 141.065 19.642L143.915 13.4934C144.015 13.3434 144.115 13.1434 144.315 12.9935C144.464 12.8435 144.714 12.7935 144.964 12.7935H147.514V12.8935Z" fill="white"/>
<path id="Vector_15" d="M161.66 29.7398H158.511V15.2929H153.912C153.812 17.3925 153.662 19.2421 153.462 20.7417C153.262 22.2914 153.012 23.5911 152.762 24.6909C152.512 25.7906 152.163 26.6404 151.813 27.3403C151.463 28.0401 151.063 28.54 150.663 28.9399C150.263 29.3399 149.813 29.5898 149.313 29.6898C148.813 29.8397 148.313 29.8897 147.814 29.8897C147.264 29.8897 146.864 29.8397 146.614 29.7398C146.364 29.6398 146.214 29.4898 146.214 29.2899V27.3403H147.114C147.314 27.3403 147.514 27.3403 147.714 27.2903C147.913 27.2403 148.113 27.1403 148.313 26.9904C148.513 26.8404 148.713 26.6404 148.913 26.3405C149.113 26.0406 149.313 25.6907 149.463 25.1908C149.663 24.6909 149.813 24.091 149.963 23.3912C150.113 22.6913 150.263 21.8415 150.413 20.8417C150.563 19.8419 150.663 18.6922 150.763 17.3925C150.863 16.0928 150.913 14.5931 150.963 12.8935H161.66V29.7398Z" fill="white"/>
<path id="Vector_16" d="M172.208 19.8419C173.308 19.8419 174.258 19.9419 175.007 20.1919C175.807 20.4418 176.407 20.7417 176.907 21.1916C177.407 21.5916 177.757 22.0914 178.007 22.6413C178.257 23.1912 178.357 23.7911 178.357 24.4409C178.357 25.2408 178.207 25.9406 177.957 26.5905C177.657 27.2403 177.257 27.7902 176.757 28.2401C176.207 28.69 175.607 29.0399 174.808 29.2899C174.058 29.5398 173.158 29.6398 172.208 29.6398H166.359V12.8935H169.509V19.8419H172.208ZM172.208 27.2903C172.808 27.2903 173.258 27.2403 173.658 27.0904C174.058 26.9404 174.358 26.7904 174.608 26.5405C174.858 26.3405 175.007 26.0406 175.107 25.7406C175.207 25.4407 175.257 25.0908 175.257 24.7409C175.257 24.341 175.207 23.991 175.107 23.6911C175.007 23.3912 174.858 23.1412 174.608 22.8913C174.358 22.6913 174.058 22.4914 173.658 22.3914C173.258 22.2914 172.808 22.2414 172.208 22.2414H169.459V27.2403H172.208V27.2903Z" fill="white"/>
<path id="Vector_17" d="M192.304 25.7407C192.454 25.7407 192.604 25.7907 192.754 25.9406L194.003 27.2903C193.304 28.1402 192.504 28.79 191.504 29.2399C190.504 29.6898 189.304 29.9398 187.905 29.9398C186.655 29.9398 185.555 29.7398 184.555 29.2899C183.556 28.84 182.706 28.2901 182.006 27.4903C181.306 26.7405 180.756 25.8407 180.406 24.7909C180.006 23.7411 179.856 22.5914 179.856 21.3416C179.856 20.0919 180.056 18.9422 180.456 17.8924C180.856 16.8426 181.406 15.9428 182.156 15.193C182.906 14.4432 183.756 13.8433 184.755 13.4434C185.755 13.0435 186.905 12.7935 188.105 12.7935C189.354 12.7935 190.404 12.9935 191.354 13.3934C192.304 13.7933 193.104 14.3432 193.803 14.993L192.754 16.4427C192.704 16.5427 192.604 16.5927 192.504 16.6927C192.404 16.7427 192.254 16.7926 192.104 16.7926C192.004 16.7926 191.854 16.7427 191.754 16.6927C191.654 16.6427 191.504 16.5427 191.354 16.4427C191.204 16.3427 191.054 16.2428 190.854 16.1428C190.654 16.0428 190.454 15.9428 190.154 15.8428C189.904 15.7429 189.604 15.6429 189.254 15.5929C188.904 15.5429 188.505 15.4929 188.105 15.4929C187.355 15.4929 186.655 15.6429 186.055 15.8928C185.455 16.1428 184.905 16.5427 184.455 17.0426C184.006 17.5425 183.656 18.1923 183.406 18.8922C183.156 19.592 183.056 20.4418 183.056 21.3916C183.056 22.3414 183.206 23.1912 183.456 23.9411C183.706 24.6909 184.106 25.2908 184.555 25.7907C185.005 26.2906 185.555 26.6905 186.155 26.9404C186.755 27.1904 187.455 27.3403 188.155 27.3403C188.605 27.3403 188.954 27.3403 189.304 27.2903C189.654 27.2403 189.954 27.1904 190.254 27.0904C190.554 26.9904 190.804 26.8404 191.104 26.6905C191.354 26.5405 191.604 26.3405 191.854 26.0906C191.954 26.0406 192.004 25.9406 192.104 25.9406C192.104 25.7907 192.204 25.7407 192.304 25.7407Z" fill="white"/>
</g>
</g>
<path id="Vector_18" d="M47.9859 47.4858H44.3867L58.5836 29.8396H62.1828L47.9859 47.4858Z" fill="white"/>
<path id="Vector_19" d="M3.5953 37.488H-0.00390625L21.6413 10.5439H25.2406L3.5953 37.488Z" fill="white"/>
<path id="Vector_20" d="M16.3925 37.488H8.99414L39.1375 -0.00378418H46.4859L16.3925 37.488Z" fill="white"/>
<path id="Vector_21" d="M20.0916 59.933H12.7432L42.8366 22.4413H50.2349L20.0916 59.933Z" fill="white"/>
<path id="Vector_22" d="M33.9889 53.7844H30.3896L59.2333 17.9422H62.7825L33.9889 53.7844Z" fill="white"/>
<path id="Vector_23" d="M17.9918 46.6859H14.3926L47.5353 5.44498H51.1345L17.9918 46.6859Z" fill="white"/>
</g>
</svg>
