<svg width="229" height="72" viewBox="0 0 229 72" fill="none" xmlns="http://www.w3.org/2000/svg">
<g id="Group">
<g id="Group_2">
<g id="Group_3">
<path id="Vector" d="M101.011 56.5775H99.1958C98.9616 56.5775 98.8445 56.5189 98.6689 56.4018C98.5518 56.2848 98.4347 56.1677 98.3762 56.0506L97.6151 53.8845H93.0489L92.2878 56.0506C92.2293 56.1677 92.1708 56.2848 91.9951 56.4018C91.878 56.5189 91.7024 56.5775 91.4682 56.5775H89.5949L94.1026 45.1033H96.5614L101.011 56.5775ZM97.0297 52.1868L95.8003 48.6743C95.7418 48.4987 95.6247 48.2645 95.5662 48.0304C95.5076 47.7962 95.3905 47.5035 95.332 47.2108C95.2735 47.5035 95.1564 47.7962 95.0978 48.0304C95.0393 48.2645 94.9222 48.4987 94.8637 48.6743L93.6343 52.1868H97.0297Z" fill="white"/>
<path id="Vector_2" d="M107.04 45.0447C107.801 45.0447 108.445 45.1032 109.031 45.2788C109.558 45.3959 110.026 45.6301 110.377 45.9228C110.728 46.2155 110.963 46.5082 111.138 46.918C111.314 47.2693 111.372 47.7376 111.372 48.2059C111.372 48.4986 111.314 48.7328 111.255 48.967C111.197 49.2011 111.08 49.4353 110.904 49.6695C110.728 49.9036 110.553 50.0793 110.26 50.2549C110.026 50.4305 109.733 50.6061 109.382 50.7232C110.143 50.8989 110.728 51.1916 111.138 51.6014C111.489 52.0111 111.724 52.538 111.724 53.2405C111.724 53.7089 111.607 54.1772 111.431 54.587C111.255 54.9968 110.963 55.348 110.611 55.6993C110.26 55.992 109.792 56.2262 109.265 56.4018C108.738 56.5774 108.153 56.6359 107.45 56.6359H103.001V45.0447H107.04ZM105.343 46.8595V49.9622H106.923C107.274 49.9622 107.567 49.9622 107.801 49.9036C108.036 49.8451 108.27 49.7866 108.445 49.6109C108.621 49.4939 108.738 49.3182 108.855 49.1426C108.972 48.967 108.972 48.7328 108.972 48.4401C108.972 48.1474 108.914 47.9132 108.855 47.7376C108.797 47.562 108.679 47.3863 108.504 47.2693C108.328 47.1522 108.153 47.0351 107.918 46.9766C107.684 46.918 107.392 46.918 107.04 46.918H105.343V46.8595ZM107.392 54.7626C107.743 54.7626 108.094 54.7041 108.328 54.6455C108.562 54.5284 108.797 54.4114 108.914 54.2943C109.089 54.1187 109.148 53.943 109.206 53.7674C109.265 53.5918 109.265 53.3576 109.265 53.182C109.265 52.9478 109.206 52.7136 109.148 52.538C109.089 52.3624 108.972 52.1868 108.797 52.0697C108.621 51.9526 108.445 51.8355 108.211 51.777C107.977 51.7184 107.684 51.6599 107.274 51.6599H105.226V54.7626H107.392Z" fill="white"/>
<path id="Vector_3" d="M122.554 46.9766H119.158V56.5774H116.758V46.9766H113.421V45.0447H122.554V46.9766Z" fill="white"/>
<path id="Vector_4" d="M135.667 50.8403C135.667 51.6599 135.55 52.4795 135.257 53.182C134.965 53.8845 134.555 54.5285 134.087 55.0553C133.56 55.5822 132.974 55.992 132.213 56.2847C131.511 56.5774 130.691 56.7531 129.813 56.7531C128.935 56.7531 128.115 56.5774 127.413 56.2847C126.71 55.992 126.066 55.5822 125.54 55.0553C125.013 54.5285 124.603 53.8845 124.31 53.182C124.017 52.4795 123.9 51.6599 123.9 50.8403C123.9 50.0208 124.017 49.2012 124.31 48.4987C124.603 47.7962 125.013 47.1522 125.54 46.6253C126.066 46.0984 126.652 45.6887 127.413 45.3959C128.115 45.1032 128.935 44.9276 129.813 44.9276C130.691 44.9276 131.511 45.1032 132.213 45.3959C132.916 45.6887 133.56 46.0984 134.087 46.6253C134.614 47.1522 135.023 47.7962 135.257 48.4987C135.55 49.2012 135.667 49.9622 135.667 50.8403ZM133.267 50.8403C133.267 50.2549 133.209 49.6695 133.033 49.2012C132.857 48.7328 132.623 48.323 132.33 47.9718C132.038 47.6205 131.686 47.3864 131.218 47.2107C130.808 47.0351 130.34 46.918 129.755 46.918C129.228 46.918 128.759 47.0351 128.291 47.2107C127.881 47.3864 127.471 47.6205 127.179 47.9718C126.886 48.323 126.652 48.7328 126.476 49.2012C126.301 49.6695 126.242 50.1964 126.242 50.8403C126.242 51.4258 126.301 52.0112 126.476 52.4795C126.652 52.9478 126.886 53.3576 127.179 53.7089C127.471 54.0601 127.823 54.2943 128.291 54.4699C128.701 54.6455 129.228 54.7626 129.755 54.7626C130.281 54.7626 130.75 54.6455 131.218 54.4699C131.628 54.2943 131.979 54.0601 132.33 53.7089C132.623 53.3576 132.857 52.9478 133.033 52.4795C133.15 51.9526 133.267 51.4258 133.267 50.8403Z" fill="white"/>
<path id="Vector_5" d="M150.713 45.0447V56.5189H148.605V49.4939C148.605 49.3182 148.605 49.2011 148.605 49.0255C148.605 48.8499 148.605 48.6743 148.664 48.4986L145.385 54.7626C145.21 55.1139 144.917 55.2895 144.566 55.2895H144.214C144.039 55.2895 143.863 55.2309 143.746 55.1724C143.629 55.1139 143.512 54.9382 143.395 54.7626L140.116 48.4986C140.116 48.6743 140.116 48.8499 140.175 49.0255C140.175 49.2011 140.175 49.3768 140.175 49.4939V56.5774H138.068V45.0447H139.882C139.999 45.0447 140.058 45.0447 140.175 45.0447C140.234 45.0447 140.351 45.0447 140.409 45.1032C140.468 45.1032 140.526 45.1618 140.585 45.2203C140.643 45.2788 140.702 45.3374 140.702 45.4545L143.922 51.6014C144.039 51.777 144.097 51.9526 144.214 52.1868C144.273 52.3624 144.39 52.5966 144.449 52.7722C144.507 52.538 144.624 52.3624 144.683 52.1282C144.741 51.9526 144.858 51.7184 144.975 51.5428L148.195 45.4545C148.254 45.3374 148.312 45.2788 148.371 45.2203C148.429 45.1618 148.488 45.1618 148.546 45.1032C148.605 45.1032 148.664 45.0447 148.781 45.0447C148.839 45.0447 148.956 45.0447 149.073 45.0447H150.713Z" fill="white"/>
<path id="Vector_6" d="M164.119 56.5775H162.304C162.07 56.5775 161.953 56.5189 161.777 56.4018C161.66 56.2848 161.543 56.1677 161.484 56.0506L160.723 53.8845H156.157L155.396 56.0506C155.337 56.1677 155.279 56.2848 155.103 56.4018C154.986 56.5189 154.81 56.5775 154.576 56.5775H152.703L157.211 45.1033H159.669L164.119 56.5775ZM160.138 52.1868L158.908 48.6743C158.85 48.4987 158.733 48.2645 158.674 48.0304C158.616 47.7962 158.499 47.5035 158.44 47.2108C158.382 47.5035 158.264 47.7962 158.206 48.0304C158.147 48.2645 158.03 48.4987 157.972 48.6743L156.742 52.1868H160.138Z" fill="white"/>
<path id="Vector_7" d="M173.485 46.9766H170.09V56.5774H167.748V46.9766H164.411V45.0447H173.544V46.9766H173.485Z" fill="white"/>
<path id="Vector_8" d="M186.013 45.0447V56.5189H183.613V49.728C183.613 49.4353 183.613 49.1426 183.613 48.8499C183.613 48.5572 183.671 48.2059 183.73 47.8547C183.613 48.1474 183.496 48.4401 183.379 48.7328C183.262 49.0255 183.145 49.2597 183.027 49.4353L179.047 55.8749C178.988 55.992 178.93 56.0505 178.871 56.1091C178.812 56.1676 178.695 56.2847 178.637 56.3432C178.578 56.4018 178.461 56.4603 178.344 56.5189C178.227 56.5774 178.11 56.5774 177.993 56.5774H176.178V45.0447H178.578V51.8941C178.578 52.1868 178.578 52.4795 178.578 52.7722C178.578 53.0649 178.52 53.4162 178.461 53.7674C178.578 53.4747 178.695 53.182 178.812 52.8893C178.93 52.5966 179.047 52.3624 179.164 52.1868L183.145 45.7472C183.203 45.6886 183.262 45.5716 183.32 45.513C183.379 45.4545 183.496 45.3374 183.554 45.2788C183.613 45.2203 183.73 45.1618 183.847 45.1032C183.964 45.0447 184.081 45.0447 184.198 45.0447H186.013Z" fill="white"/>
<path id="Vector_9" d="M199.712 56.5774H197.546C197.312 56.5774 197.136 56.5189 197.019 56.4018C196.844 56.2847 196.726 56.1091 196.609 55.8749L194.443 52.1282C194.385 52.0111 194.326 51.9526 194.268 51.8355C194.209 51.777 194.092 51.7184 194.033 51.6599C193.975 51.6014 193.858 51.6014 193.741 51.5428C193.624 51.5428 193.507 51.5428 193.39 51.5428H192.16V56.5189H189.76V45.0447H192.16V49.7866H193.214C193.448 49.7866 193.624 49.728 193.741 49.6695C193.916 49.6109 194.033 49.4353 194.151 49.2597L196.492 45.6886C196.609 45.513 196.726 45.3374 196.902 45.2203C197.078 45.1032 197.253 45.0447 197.487 45.0447H199.536L196.551 49.6109C196.434 49.8451 196.258 49.9622 196.082 50.1378C195.907 50.2549 195.731 50.372 195.497 50.4305C195.848 50.5476 196.141 50.6647 196.375 50.8989C196.609 51.0745 196.844 51.3672 197.019 51.777L199.712 56.5774Z" fill="white"/>
<path id="Vector_10" d="M211.889 56.5775H210.074C209.84 56.5775 209.723 56.5189 209.547 56.4018C209.43 56.2848 209.313 56.1677 209.254 56.0506L208.493 53.8845H203.927L203.166 56.0506C203.107 56.1677 203.049 56.2848 202.873 56.4018C202.756 56.5189 202.58 56.5775 202.346 56.5775H200.473L204.981 45.1033H207.439L211.889 56.5775ZM207.908 52.1868L206.678 48.6743C206.62 48.4987 206.503 48.2645 206.444 48.0304C206.386 47.7962 206.269 47.5035 206.21 47.2108C206.152 47.5035 206.034 47.7962 205.976 48.0304C205.917 48.2645 205.8 48.4987 205.742 48.6743L204.512 52.1868H207.908Z" fill="white"/>
</g>
</g>
<g id="Group_4">
<g id="Group_5">
<path id="Vector_11" d="M106.513 16.0079V35.7365H102.825V23.3842C102.825 22.9159 102.825 22.4475 102.884 21.9207C102.884 21.3938 102.942 20.8669 103.059 20.2815C102.884 20.8084 102.708 21.2767 102.474 21.6865C102.24 22.0963 102.064 22.5061 101.83 22.7988L94.2782 34.5657C94.2197 34.6828 94.1026 34.8584 93.9855 34.9755C93.8684 35.0926 93.7513 35.2096 93.6342 35.3267C93.5172 35.4438 93.3415 35.5023 93.1659 35.5609C92.9903 35.6194 92.8147 35.678 92.639 35.678H89.8876V16.0079H93.5757V28.3603C93.5757 28.8286 93.5757 29.2969 93.5172 29.8238C93.5172 30.3507 93.4586 30.8775 93.3415 31.463C93.5172 30.9361 93.6928 30.4678 93.927 30.058C94.1611 29.6482 94.3367 29.2384 94.5709 28.8871L102.064 17.1202C102.123 17.0031 102.24 16.8275 102.357 16.7104C102.474 16.5934 102.591 16.4763 102.708 16.3592C102.825 16.2421 103.001 16.1836 103.177 16.125C103.352 16.0665 103.528 16.0079 103.703 16.0079H106.513Z" fill="white"/>
<path id="Vector_12" d="M132.272 16.0079V35.7365H129.052V22.9744C129.052 22.4475 129.052 21.9207 129.111 21.3352L123.139 32.5167C122.847 33.0436 122.437 33.3363 121.851 33.3363H121.325C120.739 33.3363 120.329 33.0436 120.037 32.5167L114.007 21.2767C114.007 21.5694 114.065 21.8621 114.065 22.1548C114.065 22.4475 114.065 22.7402 114.065 22.9744V35.678H110.846V16.0079H113.597C113.773 16.0079 113.89 16.0079 114.007 16.0079C114.124 16.0079 114.241 16.0665 114.3 16.0665C114.417 16.125 114.475 16.1836 114.534 16.2421C114.592 16.3006 114.709 16.4177 114.768 16.5934L120.681 27.5407C120.856 27.8334 120.973 28.1261 121.09 28.4188C121.207 28.7115 121.325 29.0628 121.5 29.3555C121.617 29.0042 121.734 28.7115 121.91 28.3603C122.027 28.0675 122.203 27.7163 122.32 27.4821L128.115 16.5934C128.174 16.4763 128.291 16.3592 128.35 16.2421C128.408 16.1836 128.525 16.125 128.642 16.0665C128.759 16.0079 128.818 16.0079 128.935 16.0079C129.052 16.0079 129.169 16.0079 129.345 16.0079H132.272Z" fill="white"/>
<path id="Vector_13" d="M153.113 35.7365H149.425V18.8179H140.878V35.678H137.189V16.0079H153.113V35.7365Z" fill="white"/>
<path id="Vector_14" d="M173.661 16.008L165.699 32.9851C165.406 33.5705 165.114 34.0388 164.821 34.4486C164.528 34.8584 164.177 35.1511 163.767 35.3267C163.416 35.5609 163.006 35.678 162.596 35.7951C162.187 35.8536 161.718 35.9122 161.25 35.9122C160.606 35.9122 160.138 35.8536 159.845 35.7365C159.552 35.6194 159.377 35.4438 159.377 35.2097V32.9265H160.43C160.606 32.9265 160.84 32.9265 161.016 32.868C161.25 32.8094 161.426 32.7509 161.66 32.6338C161.835 32.5167 162.07 32.3997 162.245 32.1655C162.421 31.9899 162.596 31.6971 162.772 31.3459L163.533 29.7653L155.63 15.9494H159.084C159.377 15.9494 159.669 16.008 159.845 16.1836C160.021 16.3592 160.196 16.5348 160.313 16.769L164.119 23.9696C164.353 24.3794 164.528 24.7892 164.704 25.1405C164.88 25.5503 164.997 25.9601 165.172 26.3113C165.406 25.4917 165.699 24.6721 166.109 23.9111L169.446 16.7105C169.563 16.5348 169.68 16.3007 169.914 16.125C170.09 15.9494 170.383 15.8909 170.675 15.8909H173.661V16.008Z" fill="white"/>
<path id="Vector_15" d="M190.228 35.7365H186.54V18.8179H181.154C181.037 21.2767 180.862 23.4427 180.627 25.199C180.393 27.0138 180.1 28.5359 179.808 29.8238C179.515 31.1117 179.105 32.1069 178.695 32.9265C178.286 33.7461 177.817 34.3315 177.349 34.7998C176.881 35.2682 176.354 35.5609 175.768 35.678C175.183 35.8536 174.598 35.9121 174.012 35.9121C173.368 35.9121 172.9 35.8536 172.607 35.7365C172.314 35.6194 172.139 35.4438 172.139 35.2096V32.9265H173.193C173.427 32.9265 173.661 32.9265 173.895 32.868C174.129 32.8094 174.363 32.6923 174.598 32.5167C174.832 32.3411 175.066 32.1069 175.3 31.7557C175.534 31.4044 175.768 30.9946 175.944 30.4092C176.178 29.8238 176.354 29.1213 176.529 28.3017C176.705 27.4821 176.881 26.4869 177.056 25.3161C177.232 24.1452 177.349 22.7988 177.466 21.2767C177.583 19.7546 177.642 17.9984 177.7 16.0079H190.228V35.7365Z" fill="white"/>
<path id="Vector_16" d="M202.581 24.1452C203.868 24.1452 204.981 24.2623 205.859 24.555C206.796 24.8477 207.498 25.199 208.083 25.7259C208.669 26.1942 209.079 26.7796 209.371 27.4236C209.664 28.0675 209.781 28.77 209.781 29.5311C209.781 30.4678 209.606 31.2873 209.313 32.0484C208.962 32.8094 208.493 33.4534 207.908 33.9803C207.264 34.5071 206.561 34.9169 205.625 35.2096C204.747 35.5023 203.693 35.6194 202.581 35.6194H195.731V16.0079H199.419V24.1452H202.581ZM202.581 32.868C203.283 32.868 203.81 32.8094 204.278 32.6338C204.747 32.4582 205.098 32.2825 205.391 31.9898C205.683 31.7557 205.859 31.4044 205.976 31.0532C206.093 30.7019 206.152 30.2921 206.152 29.8823C206.152 29.414 206.093 29.0042 205.976 28.653C205.859 28.3017 205.683 28.009 205.391 27.7163C205.098 27.4821 204.747 27.248 204.278 27.1309C203.81 27.0138 203.283 26.9552 202.581 26.9552H199.361V32.8094H202.581V32.868Z" fill="white"/>
<path id="Vector_17" d="M226.114 31.0532C226.29 31.0532 226.466 31.1117 226.641 31.2874L228.105 32.868C227.285 33.8632 226.349 34.6242 225.178 35.1511C224.007 35.678 222.602 35.9707 220.963 35.9707C219.499 35.9707 218.211 35.7365 217.04 35.2097C215.87 34.6828 214.874 34.0388 214.055 33.1022C213.235 32.224 212.591 31.1703 212.181 29.9409C211.713 28.7115 211.537 27.3651 211.537 25.9015C211.537 24.438 211.772 23.0915 212.24 21.8621C212.708 20.6328 213.352 19.579 214.23 18.7009C215.108 17.8227 216.104 17.1202 217.275 16.6519C218.445 16.1836 219.792 15.8909 221.197 15.8909C222.66 15.8909 223.89 16.125 225.002 16.5934C226.114 17.0617 227.051 17.7057 227.871 18.4667L226.641 20.1644C226.583 20.2815 226.466 20.34 226.349 20.4571C226.231 20.5157 226.056 20.5742 225.88 20.5742C225.763 20.5742 225.587 20.5157 225.47 20.4571C225.353 20.3986 225.178 20.2815 225.002 20.1644C224.826 20.0473 224.651 19.9303 224.417 19.8132C224.182 19.6961 223.948 19.579 223.597 19.4619C223.304 19.3448 222.953 19.2278 222.543 19.1692C222.134 19.1107 221.665 19.0521 221.197 19.0521C220.319 19.0521 219.499 19.2278 218.797 19.5205C218.094 19.8132 217.45 20.2815 216.923 20.8669C216.396 21.4523 215.987 22.2134 215.694 23.033C215.401 23.8526 215.284 24.8478 215.284 25.9601C215.284 27.0723 215.46 28.0676 215.752 28.9457C216.045 29.8238 216.514 30.5263 217.04 31.1117C217.567 31.6971 218.211 32.1655 218.914 32.4582C219.616 32.7509 220.436 32.9265 221.255 32.9265C221.782 32.9265 222.192 32.9265 222.602 32.868C223.012 32.8094 223.363 32.7509 223.714 32.6338C224.065 32.5167 224.358 32.3411 224.709 32.1655C225.002 31.9899 225.295 31.7557 225.587 31.463C225.705 31.4044 225.763 31.2874 225.88 31.2874C225.88 31.1117 225.997 31.0532 226.114 31.0532Z" fill="white"/>
</g>
</g>
<path id="Vector_18" d="M57.1042 56.5189H52.8892L69.5151 35.8536H73.7301L57.1042 56.5189Z" fill="white"/>
<path id="Vector_19" d="M5.11912 44.8105H0.904114L26.2527 13.2565H30.4677L5.11912 44.8105Z" fill="white"/>
<path id="Vector_20" d="M20.1058 44.8105H11.4416L46.7423 0.904175H55.3479L20.1058 44.8105Z" fill="white"/>
<path id="Vector_21" d="M24.4379 71.0958H15.8322L51.0744 27.1895H59.7385L24.4379 71.0958Z" fill="white"/>
<path id="Vector_22" d="M40.7125 63.8951H36.4975L70.2761 21.9207H74.4326L40.7125 63.8951Z" fill="white"/>
<path id="Vector_23" d="M21.9792 55.5822H17.7642L56.5774 7.28528H60.7924L21.9792 55.5822Z" fill="white"/>
</g>
</svg>
